<?xml version="1.0" encoding="UTF-8"?>
<svg xmlns="http://www.w3.org/2000/svg" xmlns:xlink="http://www.w3.org/1999/xlink" stroke-dasharray="none" shape-rendering="auto" font-family="'Dialog'" width="905" text-rendering="auto" fill-opacity="1" contentScriptType="text/ecmascript" color-interpolation="auto" color-rendering="auto" preserveAspectRatio="xMidYMid meet" font-size="12" viewBox="0 0 905 610" fill="black" stroke="black" image-rendering="auto" stroke-miterlimit="10" zoomAndPan="magnify" version="1.0" stroke-linecap="square" stroke-linejoin="miter" contentStyleType="text/css" font-style="normal" height="610" stroke-width="1" stroke-dashoffset="0" font-weight="normal" stroke-opacity="1">
  <!--Generated by the Batik Graphics2D SVG Generator-->
  <defs id="genericDefs" />
  <g>
    <defs id="defs1">
      <clipPath clipPathUnits="userSpaceOnUse" id="clipPath1">
        <path d="M351 9 L423 9 L423 41 L351 41 L351 9 Z" />
      </clipPath>
      <clipPath clipPathUnits="userSpaceOnUse" id="clipPath2">
        <path d="M351 9 L427 9 L427 41 L351 41 L351 9 Z" />
      </clipPath>
      <clipPath clipPathUnits="userSpaceOnUse" id="clipPath3">
        <path d="M381 39 L393 39 L393 601 L381 601 L381 39 Z" />
      </clipPath>
      <clipPath clipPathUnits="userSpaceOnUse" id="clipPath4">
        <path d="M451 9 L603 9 L603 61 L451 61 L451 9 Z" />
      </clipPath>
      <clipPath clipPathUnits="userSpaceOnUse" id="clipPath5">
        <path d="M451 9 L606 9 L606 61 L451 61 L451 9 Z" />
      </clipPath>
      <clipPath clipPathUnits="userSpaceOnUse" id="clipPath6">
        <path d="M521 59 L533 59 L533 601 L521 601 L521 59 Z" />
      </clipPath>
      <clipPath clipPathUnits="userSpaceOnUse" id="clipPath7">
        <path d="M516 89 L538 89 L538 131 L516 131 L516 89 Z" />
      </clipPath>
      <clipPath clipPathUnits="userSpaceOnUse" id="clipPath8">
        <path d="M537 89 L581 89 L581 108 L537 108 L537 89 Z" />
      </clipPath>
      <clipPath clipPathUnits="userSpaceOnUse" id="clipPath9">
        <path d="M516 209 L538 209 L538 251 L516 251 L516 209 Z" />
      </clipPath>
      <clipPath clipPathUnits="userSpaceOnUse" id="clipPath10">
        <path d="M537 209 L581 209 L581 228 L537 228 L537 209 Z" />
      </clipPath>
      <clipPath clipPathUnits="userSpaceOnUse" id="clipPath11">
        <path d="M516 329 L538 329 L538 371 L516 371 L516 329 Z" />
      </clipPath>
      <clipPath clipPathUnits="userSpaceOnUse" id="clipPath12">
        <path d="M537 329 L581 329 L581 348 L537 348 L537 329 Z" />
      </clipPath>
      <clipPath clipPathUnits="userSpaceOnUse" id="clipPath13">
        <path d="M516 449 L538 449 L538 491 L516 491 L516 449 Z" />
      </clipPath>
      <clipPath clipPathUnits="userSpaceOnUse" id="clipPath14">
        <path d="M537 449 L581 449 L581 468 L537 468 L537 449 Z" />
      </clipPath>
      <clipPath clipPathUnits="userSpaceOnUse" id="clipPath15">
        <path d="M516 149 L538 149 L538 191 L516 191 L516 149 Z" />
      </clipPath>
      <clipPath clipPathUnits="userSpaceOnUse" id="clipPath16">
        <path d="M537 149 L572 149 L572 168 L537 168 L537 149 Z" />
      </clipPath>
      <clipPath clipPathUnits="userSpaceOnUse" id="clipPath17">
        <path d="M516 269 L538 269 L538 311 L516 311 L516 269 Z" />
      </clipPath>
      <clipPath clipPathUnits="userSpaceOnUse" id="clipPath18">
        <path d="M537 269 L572 269 L572 288 L537 288 L537 269 Z" />
      </clipPath>
      <clipPath clipPathUnits="userSpaceOnUse" id="clipPath19">
        <path d="M516 389 L538 389 L538 431 L516 431 L516 389 Z" />
      </clipPath>
      <clipPath clipPathUnits="userSpaceOnUse" id="clipPath20">
        <path d="M537 389 L572 389 L572 408 L537 408 L537 389 Z" />
      </clipPath>
      <clipPath clipPathUnits="userSpaceOnUse" id="clipPath21">
        <path d="M516 509 L538 509 L538 551 L516 551 L516 509 Z" />
      </clipPath>
      <clipPath clipPathUnits="userSpaceOnUse" id="clipPath22">
        <path d="M537 509 L572 509 L572 528 L537 528 L537 509 Z" />
      </clipPath>
      <clipPath clipPathUnits="userSpaceOnUse" id="clipPath23">
        <path d="M-1 -1 L906 -1 L906 611 L-1 611 L-1 -1 Z" />
      </clipPath>
      <clipPath clipPathUnits="userSpaceOnUse" id="clipPath24">
        <path d="M355 71 L553 71 L553 90 L355 90 L355 71 Z" />
      </clipPath>
      <clipPath clipPathUnits="userSpaceOnUse" id="clipPath25">
        <path d="M385 85 L397 85 L397 96 L385 96 L385 85 Z" />
      </clipPath>
      <clipPath clipPathUnits="userSpaceOnUse" id="clipPath26">
        <path d="M344 191 L563 191 L563 210 L344 210 L344 191 Z" />
      </clipPath>
      <clipPath clipPathUnits="userSpaceOnUse" id="clipPath27">
        <path d="M385 205 L397 205 L397 216 L385 216 L385 205 Z" />
      </clipPath>
      <clipPath clipPathUnits="userSpaceOnUse" id="clipPath28">
        <path d="M384 311 L523 311 L523 330 L384 330 L384 311 Z" />
      </clipPath>
      <clipPath clipPathUnits="userSpaceOnUse" id="clipPath29">
        <path d="M385 325 L397 325 L397 336 L385 336 L385 325 Z" />
      </clipPath>
      <clipPath clipPathUnits="userSpaceOnUse" id="clipPath30">
        <path d="M23 431 L885 431 L885 450 L23 450 L23 431 Z" />
      </clipPath>
      <clipPath clipPathUnits="userSpaceOnUse" id="clipPath31">
        <path d="M385 445 L397 445 L397 456 L385 456 L385 445 Z" />
      </clipPath>
      <clipPath clipPathUnits="userSpaceOnUse" id="clipPath32">
        <path d="M287 131 L621 131 L621 150 L287 150 L287 131 Z" />
      </clipPath>
      <clipPath clipPathUnits="userSpaceOnUse" id="clipPath33">
        <path d="M508 145 L520 145 L520 156 L508 156 L508 145 Z" />
      </clipPath>
      <clipPath clipPathUnits="userSpaceOnUse" id="clipPath34">
        <path d="M327 251 L580 251 L580 270 L327 270 L327 251 Z" />
      </clipPath>
      <clipPath clipPathUnits="userSpaceOnUse" id="clipPath35">
        <path d="M508 265 L520 265 L520 276 L508 276 L508 265 Z" />
      </clipPath>
      <clipPath clipPathUnits="userSpaceOnUse" id="clipPath36">
        <path d="M308 371 L600 371 L600 390 L308 390 L308 371 Z" />
      </clipPath>
      <clipPath clipPathUnits="userSpaceOnUse" id="clipPath37">
        <path d="M508 385 L520 385 L520 396 L508 396 L508 385 Z" />
      </clipPath>
      <clipPath clipPathUnits="userSpaceOnUse" id="clipPath38">
        <path d="M302 491 L606 491 L606 510 L302 510 L302 491 Z" />
      </clipPath>
      <clipPath clipPathUnits="userSpaceOnUse" id="clipPath39">
        <path d="M508 505 L520 505 L520 516 L508 516 L508 505 Z" />
      </clipPath>
    </defs>
    <g font-size="9" fill="rgb(238,201,142)" stroke-linejoin="round" stroke="rgb(238,201,142)" stroke-width="0" stroke-miterlimit="0">
      <rect x="352" y="10" clip-path="url(#clipPath1)" width="70" height="30" stroke="none" />
    </g>
    <g font-size="9" stroke-width="0.1" stroke-linecap="butt">
      <rect x="352" y="10" clip-path="url(#clipPath1)" fill="none" width="69" height="29" />
      <text x="363" font-size="14" y="30" clip-path="url(#clipPath2)" stroke="none" xml:space="preserve">System</text>
      <line clip-path="url(#clipPath3)" fill="none" x1="386" x2="386" y1="40" y2="600" stroke-dasharray="10,10" stroke-width="1.1" />
    </g>
    <g stroke-linecap="butt" font-size="9" fill="rgb(255,245,181)" stroke-dasharray="10,10" stroke="rgb(255,245,181)" stroke-width="1.1">
      <rect x="452" y="10" clip-path="url(#clipPath4)" width="150" height="50" stroke="none" />
    </g>
    <g font-size="9" stroke-width="0.1" stroke-linecap="butt">
      <rect x="452" y="10" clip-path="url(#clipPath4)" fill="none" width="149" height="49" />
      <text x="485" font-size="14" y="32" clip-path="url(#clipPath5)" stroke="none" xml:space="preserve">mikeSchmitz</text>
      <text x="484" font-size="14" y="49" clip-path="url(#clipPath5)" stroke="none" xml:space="preserve">: actLibrarian</text>
      <line clip-path="url(#clipPath6)" fill="none" x1="526" x2="526" y1="60" y2="600" stroke-dasharray="10,10" stroke-width="1.1" />
    </g>
    <g stroke-linecap="butt" font-size="9" fill="rgb(39,76,114)" stroke-dasharray="10,10" stroke="rgb(39,76,114)" stroke-width="1.1">
      <rect x="517" y="90" clip-path="url(#clipPath7)" width="20" height="40" stroke="none" />
      <rect x="517" y="90" clip-path="url(#clipPath7)" fill="none" width="19" stroke-dasharray="none" height="39" stroke-width="0.1" />
    </g>
    <g font-size="14" stroke-width="0.1" stroke-linecap="butt">
      <text xml:space="preserve" x="538" y="104" clip-path="url(#clipPath8)" stroke="none">out01</text>
      <rect x="517" y="210" clip-path="url(#clipPath9)" fill="rgb(39,76,114)" width="20" height="40" stroke="none" />
      <rect x="517" y="210" clip-path="url(#clipPath9)" fill="none" width="19" height="39" stroke="rgb(39,76,114)" />
      <text xml:space="preserve" x="538" y="224" clip-path="url(#clipPath10)" stroke="none">out02</text>
      <rect x="517" y="330" clip-path="url(#clipPath11)" fill="rgb(39,76,114)" width="20" height="40" stroke="none" />
      <rect x="517" y="330" clip-path="url(#clipPath11)" fill="none" width="19" height="39" stroke="rgb(39,76,114)" />
      <text xml:space="preserve" x="538" y="344" clip-path="url(#clipPath12)" stroke="none">out03</text>
      <rect x="517" y="450" clip-path="url(#clipPath13)" fill="rgb(39,76,114)" width="20" height="40" stroke="none" />
      <rect x="517" y="450" clip-path="url(#clipPath13)" fill="none" width="19" height="39" stroke="rgb(39,76,114)" />
      <text xml:space="preserve" x="538" y="464" clip-path="url(#clipPath14)" stroke="none">out04</text>
      <rect x="517" y="150" clip-path="url(#clipPath15)" fill="rgb(194,239,255)" width="20" height="40" stroke="none" />
      <rect x="517" y="150" clip-path="url(#clipPath15)" fill="none" width="19" height="39" stroke="rgb(194,239,255)" />
      <text xml:space="preserve" x="538" y="164" clip-path="url(#clipPath16)" stroke="none">in01</text>
      <rect x="517" y="270" clip-path="url(#clipPath17)" fill="rgb(194,239,255)" width="20" height="40" stroke="none" />
      <rect x="517" y="270" clip-path="url(#clipPath17)" fill="none" width="19" height="39" stroke="rgb(194,239,255)" />
      <text xml:space="preserve" x="538" y="284" clip-path="url(#clipPath18)" stroke="none">in02</text>
      <rect x="517" y="390" clip-path="url(#clipPath19)" fill="rgb(194,239,255)" width="20" height="40" stroke="none" />
      <rect x="517" y="390" clip-path="url(#clipPath19)" fill="none" width="19" height="39" stroke="rgb(194,239,255)" />
      <text xml:space="preserve" x="538" y="404" clip-path="url(#clipPath20)" stroke="none">in03</text>
      <rect x="517" y="510" clip-path="url(#clipPath21)" fill="rgb(194,239,255)" width="20" height="40" stroke="none" />
      <rect x="517" y="510" clip-path="url(#clipPath21)" fill="none" width="19" height="39" stroke="rgb(194,239,255)" />
      <text xml:space="preserve" x="538" y="524" clip-path="url(#clipPath22)" stroke="none">in04</text>
      <line clip-path="url(#clipPath23)" fill="none" x1="517" x2="387" y1="90" y2="90" stroke="rgb(136,136,136)" stroke-width="2.1" />
      <text x="356" y="86" clip-path="url(#clipPath24)" stroke="none" stroke-width="2.1" xml:space="preserve">sfAccessCustomerDatabase()</text>
      <line clip-path="url(#clipPath25)" fill="none" x1="394" x2="387" y1="87" y2="90" stroke="rgb(136,136,136)" stroke-width="2.1" />
      <line clip-path="url(#clipPath25)" fill="none" x1="387" x2="394" y1="90" y2="93" stroke="rgb(136,136,136)" stroke-width="2.1" />
      <line clip-path="url(#clipPath23)" fill="none" x1="517" x2="387" y1="210" y2="210" stroke="rgb(136,136,136)" stroke-width="2.1" />
      <text x="345" y="206" clip-path="url(#clipPath26)" stroke="none" stroke-width="2.1" xml:space="preserve">sfSearchCustomer("John Smith")</text>
      <line clip-path="url(#clipPath27)" fill="none" x1="394" x2="387" y1="207" y2="210" stroke="rgb(136,136,136)" stroke-width="2.1" />
      <line clip-path="url(#clipPath27)" fill="none" x1="387" x2="394" y1="210" y2="213" stroke="rgb(136,136,136)" stroke-width="2.1" />
      <line clip-path="url(#clipPath23)" fill="none" x1="517" x2="387" y1="330" y2="330" stroke="rgb(136,136,136)" stroke-width="2.1" />
      <text x="385" y="326" clip-path="url(#clipPath28)" stroke="none" stroke-width="2.1" xml:space="preserve">sfInspectCustomer()</text>
      <line clip-path="url(#clipPath29)" fill="none" x1="394" x2="387" y1="327" y2="330" stroke="rgb(136,136,136)" stroke-width="2.1" />
      <line clip-path="url(#clipPath29)" fill="none" x1="387" x2="394" y1="330" y2="333" stroke="rgb(136,136,136)" stroke-width="2.1" />
      <line clip-path="url(#clipPath23)" fill="none" x1="517" x2="387" y1="450" y2="450" stroke="rgb(136,136,136)" stroke-width="2.1" />
      <text x="24" y="446" clip-path="url(#clipPath30)" stroke="none" stroke-width="2.1" xml:space="preserve">sfRequestCustomerUnban("Customer has paid all outstanding fines plus  an extra donation and has handed in a long apology letter")</text>
      <line clip-path="url(#clipPath31)" fill="none" x1="394" x2="387" y1="447" y2="450" stroke="rgb(136,136,136)" stroke-width="2.1" />
      <line clip-path="url(#clipPath31)" fill="none" x1="387" x2="394" y1="450" y2="453" stroke="rgb(136,136,136)" stroke-width="2.1" />
    </g>
    <g stroke-linecap="butt" font-size="14" fill="rgb(136,136,136)" stroke-dasharray="5,5" stroke="rgb(136,136,136)" stroke-width="2.1">
      <line clip-path="url(#clipPath23)" fill="none" x1="517" x2="387" y1="150" y2="150" />
      <text x="288" y="146" clip-path="url(#clipPath32)" fill="black" stroke="none" xml:space="preserve">ieCustomerDatabase(Customer database opened.)</text>
      <line clip-path="url(#clipPath33)" fill="none" x1="510" x2="517" y1="153" y2="150" stroke-dasharray="none" />
      <line clip-path="url(#clipPath33)" fill="none" x1="517" x2="510" y1="150" y2="147" stroke-dasharray="none" />
      <line clip-path="url(#clipPath23)" fill="none" x1="517" x2="387" y1="270" y2="270" />
      <text x="328" y="266" clip-path="url(#clipPath34)" fill="black" stroke="none" xml:space="preserve">ieCustomerQuery(Customer retrieved)</text>
      <line clip-path="url(#clipPath35)" fill="none" x1="510" x2="517" y1="273" y2="270" stroke-dasharray="none" />
      <line clip-path="url(#clipPath35)" fill="none" x1="517" x2="510" y1="270" y2="267" stroke-dasharray="none" />
      <line clip-path="url(#clipPath23)" fill="none" x1="517" x2="387" y1="390" y2="390" />
      <text x="309" y="386" clip-path="url(#clipPath36)" fill="black" stroke="none" xml:space="preserve">ieCustomerProfile(Customer profile opened)</text>
      <line clip-path="url(#clipPath37)" fill="none" x1="510" x2="517" y1="393" y2="390" stroke-dasharray="none" />
      <line clip-path="url(#clipPath37)" fill="none" x1="517" x2="510" y1="390" y2="387" stroke-dasharray="none" />
      <line clip-path="url(#clipPath23)" fill="none" x1="517" x2="387" y1="510" y2="510" />
      <text x="303" y="506" clip-path="url(#clipPath38)" fill="black" stroke="none" xml:space="preserve">ieSentUnbanRequest(Unban request send off)</text>
      <line clip-path="url(#clipPath39)" fill="none" x1="510" x2="517" y1="513" y2="510" stroke-dasharray="none" />
      <line clip-path="url(#clipPath39)" fill="none" x1="517" x2="510" y1="510" y2="507" stroke-dasharray="none" />
    </g>
  </g>
</svg>

