<?xml version="1.0" encoding="UTF-8"?>
<svg xmlns="http://www.w3.org/2000/svg" xmlns:xlink="http://www.w3.org/1999/xlink" stroke-dasharray="none" shape-rendering="auto" font-family="'Dialog'" width="600" text-rendering="auto" fill-opacity="1" contentScriptType="text/ecmascript" color-interpolation="auto" color-rendering="auto" preserveAspectRatio="xMidYMid meet" font-size="12" viewBox="0 0 600 610" fill="black" stroke="black" image-rendering="auto" stroke-miterlimit="10" zoomAndPan="magnify" version="1.0" stroke-linecap="square" stroke-linejoin="miter" contentStyleType="text/css" font-style="normal" height="610" stroke-width="1" stroke-dashoffset="0" font-weight="normal" stroke-opacity="1">
  <!--Generated by the Batik Graphics2D SVG Generator-->
  <defs id="genericDefs" />
  <g>
    <defs id="defs1">
      <clipPath clipPathUnits="userSpaceOnUse" id="clipPath1">
        <path d="M199 9 L271 9 L271 41 L199 41 L199 9 Z" />
      </clipPath>
      <clipPath clipPathUnits="userSpaceOnUse" id="clipPath2">
        <path d="M199 9 L275 9 L275 41 L199 41 L199 9 Z" />
      </clipPath>
      <clipPath clipPathUnits="userSpaceOnUse" id="clipPath3">
        <path d="M229 39 L241 39 L241 601 L229 601 L229 39 Z" />
      </clipPath>
      <clipPath clipPathUnits="userSpaceOnUse" id="clipPath4">
        <path d="M299 9 L451 9 L451 61 L299 61 L299 9 Z" />
      </clipPath>
      <clipPath clipPathUnits="userSpaceOnUse" id="clipPath5">
        <path d="M299 9 L454 9 L454 61 L299 61 L299 9 Z" />
      </clipPath>
      <clipPath clipPathUnits="userSpaceOnUse" id="clipPath6">
        <path d="M369 59 L381 59 L381 601 L369 601 L369 59 Z" />
      </clipPath>
      <clipPath clipPathUnits="userSpaceOnUse" id="clipPath7">
        <path d="M364 89 L386 89 L386 131 L364 131 L364 89 Z" />
      </clipPath>
      <clipPath clipPathUnits="userSpaceOnUse" id="clipPath8">
        <path d="M385 89 L429 89 L429 108 L385 108 L385 89 Z" />
      </clipPath>
      <clipPath clipPathUnits="userSpaceOnUse" id="clipPath9">
        <path d="M364 209 L386 209 L386 251 L364 251 L364 209 Z" />
      </clipPath>
      <clipPath clipPathUnits="userSpaceOnUse" id="clipPath10">
        <path d="M385 209 L429 209 L429 228 L385 228 L385 209 Z" />
      </clipPath>
      <clipPath clipPathUnits="userSpaceOnUse" id="clipPath11">
        <path d="M364 329 L386 329 L386 371 L364 371 L364 329 Z" />
      </clipPath>
      <clipPath clipPathUnits="userSpaceOnUse" id="clipPath12">
        <path d="M385 329 L429 329 L429 348 L385 348 L385 329 Z" />
      </clipPath>
      <clipPath clipPathUnits="userSpaceOnUse" id="clipPath13">
        <path d="M364 449 L386 449 L386 491 L364 491 L364 449 Z" />
      </clipPath>
      <clipPath clipPathUnits="userSpaceOnUse" id="clipPath14">
        <path d="M385 449 L429 449 L429 468 L385 468 L385 449 Z" />
      </clipPath>
      <clipPath clipPathUnits="userSpaceOnUse" id="clipPath15">
        <path d="M364 149 L386 149 L386 191 L364 191 L364 149 Z" />
      </clipPath>
      <clipPath clipPathUnits="userSpaceOnUse" id="clipPath16">
        <path d="M385 149 L420 149 L420 168 L385 168 L385 149 Z" />
      </clipPath>
      <clipPath clipPathUnits="userSpaceOnUse" id="clipPath17">
        <path d="M364 269 L386 269 L386 311 L364 311 L364 269 Z" />
      </clipPath>
      <clipPath clipPathUnits="userSpaceOnUse" id="clipPath18">
        <path d="M385 269 L420 269 L420 288 L385 288 L385 269 Z" />
      </clipPath>
      <clipPath clipPathUnits="userSpaceOnUse" id="clipPath19">
        <path d="M364 389 L386 389 L386 431 L364 431 L364 389 Z" />
      </clipPath>
      <clipPath clipPathUnits="userSpaceOnUse" id="clipPath20">
        <path d="M385 389 L420 389 L420 408 L385 408 L385 389 Z" />
      </clipPath>
      <clipPath clipPathUnits="userSpaceOnUse" id="clipPath21">
        <path d="M364 509 L386 509 L386 551 L364 551 L364 509 Z" />
      </clipPath>
      <clipPath clipPathUnits="userSpaceOnUse" id="clipPath22">
        <path d="M385 509 L420 509 L420 528 L385 528 L385 509 Z" />
      </clipPath>
      <clipPath clipPathUnits="userSpaceOnUse" id="clipPath23">
        <path d="M-1 -1 L601 -1 L601 611 L-1 611 L-1 -1 Z" />
      </clipPath>
      <clipPath clipPathUnits="userSpaceOnUse" id="clipPath24">
        <path d="M203 71 L401 71 L401 90 L203 90 L203 71 Z" />
      </clipPath>
      <clipPath clipPathUnits="userSpaceOnUse" id="clipPath25">
        <path d="M233 85 L245 85 L245 96 L233 96 L233 85 Z" />
      </clipPath>
      <clipPath clipPathUnits="userSpaceOnUse" id="clipPath26">
        <path d="M192 191 L411 191 L411 210 L192 210 L192 191 Z" />
      </clipPath>
      <clipPath clipPathUnits="userSpaceOnUse" id="clipPath27">
        <path d="M233 205 L245 205 L245 216 L233 216 L233 205 Z" />
      </clipPath>
      <clipPath clipPathUnits="userSpaceOnUse" id="clipPath28">
        <path d="M232 311 L371 311 L371 330 L232 330 L232 311 Z" />
      </clipPath>
      <clipPath clipPathUnits="userSpaceOnUse" id="clipPath29">
        <path d="M233 325 L245 325 L245 336 L233 336 L233 325 Z" />
      </clipPath>
      <clipPath clipPathUnits="userSpaceOnUse" id="clipPath30">
        <path d="M23 431 L580 431 L580 450 L23 450 L23 431 Z" />
      </clipPath>
      <clipPath clipPathUnits="userSpaceOnUse" id="clipPath31">
        <path d="M233 445 L245 445 L245 456 L233 456 L233 445 Z" />
      </clipPath>
      <clipPath clipPathUnits="userSpaceOnUse" id="clipPath32">
        <path d="M135 131 L469 131 L469 150 L135 150 L135 131 Z" />
      </clipPath>
      <clipPath clipPathUnits="userSpaceOnUse" id="clipPath33">
        <path d="M356 145 L368 145 L368 156 L356 156 L356 145 Z" />
      </clipPath>
      <clipPath clipPathUnits="userSpaceOnUse" id="clipPath34">
        <path d="M175 251 L428 251 L428 270 L175 270 L175 251 Z" />
      </clipPath>
      <clipPath clipPathUnits="userSpaceOnUse" id="clipPath35">
        <path d="M356 265 L368 265 L368 276 L356 276 L356 265 Z" />
      </clipPath>
      <clipPath clipPathUnits="userSpaceOnUse" id="clipPath36">
        <path d="M156 371 L448 371 L448 390 L156 390 L156 371 Z" />
      </clipPath>
      <clipPath clipPathUnits="userSpaceOnUse" id="clipPath37">
        <path d="M356 385 L368 385 L368 396 L356 396 L356 385 Z" />
      </clipPath>
      <clipPath clipPathUnits="userSpaceOnUse" id="clipPath38">
        <path d="M235 491 L369 491 L369 510 L235 510 L235 491 Z" />
      </clipPath>
      <clipPath clipPathUnits="userSpaceOnUse" id="clipPath39">
        <path d="M356 505 L368 505 L368 516 L356 516 L356 505 Z" />
      </clipPath>
    </defs>
    <g font-size="9" fill="rgb(238,201,142)" stroke-linejoin="round" stroke="rgb(238,201,142)" stroke-width="0" stroke-miterlimit="0">
      <rect x="200" y="10" clip-path="url(#clipPath1)" width="70" height="30" stroke="none" />
    </g>
    <g font-size="9" stroke-width="0.1" stroke-linecap="butt">
      <rect x="200" y="10" clip-path="url(#clipPath1)" fill="none" width="69" height="29" />
      <text x="211" font-size="14" y="30" clip-path="url(#clipPath2)" stroke="none" xml:space="preserve">System</text>
      <line clip-path="url(#clipPath3)" fill="none" x1="234" x2="234" y1="40" y2="600" stroke-dasharray="10,10" stroke-width="1.1" />
    </g>
    <g stroke-linecap="butt" font-size="9" fill="rgb(255,245,181)" stroke-dasharray="10,10" stroke="rgb(255,245,181)" stroke-width="1.1">
      <rect x="300" y="10" clip-path="url(#clipPath4)" width="150" height="50" stroke="none" />
    </g>
    <g font-size="9" stroke-width="0.1" stroke-linecap="butt">
      <rect x="300" y="10" clip-path="url(#clipPath4)" fill="none" width="149" height="49" />
      <text x="333" font-size="14" y="32" clip-path="url(#clipPath5)" stroke="none" xml:space="preserve">mikeSchmitz</text>
      <text x="332" font-size="14" y="49" clip-path="url(#clipPath5)" stroke="none" xml:space="preserve">: actLibrarian</text>
      <line clip-path="url(#clipPath6)" fill="none" x1="374" x2="374" y1="60" y2="600" stroke-dasharray="10,10" stroke-width="1.1" />
    </g>
    <g stroke-linecap="butt" font-size="9" fill="rgb(39,76,114)" stroke-dasharray="10,10" stroke="rgb(39,76,114)" stroke-width="1.1">
      <rect x="365" y="90" clip-path="url(#clipPath7)" width="20" height="40" stroke="none" />
      <rect x="365" y="90" clip-path="url(#clipPath7)" fill="none" width="19" stroke-dasharray="none" height="39" stroke-width="0.1" />
    </g>
    <g font-size="14" stroke-width="0.1" stroke-linecap="butt">
      <text xml:space="preserve" x="386" y="104" clip-path="url(#clipPath8)" stroke="none">out01</text>
      <rect x="365" y="210" clip-path="url(#clipPath9)" fill="rgb(39,76,114)" width="20" height="40" stroke="none" />
      <rect x="365" y="210" clip-path="url(#clipPath9)" fill="none" width="19" height="39" stroke="rgb(39,76,114)" />
      <text xml:space="preserve" x="386" y="224" clip-path="url(#clipPath10)" stroke="none">out02</text>
      <rect x="365" y="330" clip-path="url(#clipPath11)" fill="rgb(39,76,114)" width="20" height="40" stroke="none" />
      <rect x="365" y="330" clip-path="url(#clipPath11)" fill="none" width="19" height="39" stroke="rgb(39,76,114)" />
      <text xml:space="preserve" x="386" y="344" clip-path="url(#clipPath12)" stroke="none">out03</text>
      <rect x="365" y="450" clip-path="url(#clipPath13)" fill="rgb(39,76,114)" width="20" height="40" stroke="none" />
      <rect x="365" y="450" clip-path="url(#clipPath13)" fill="none" width="19" height="39" stroke="rgb(39,76,114)" />
      <text xml:space="preserve" x="386" y="464" clip-path="url(#clipPath14)" stroke="none">out04</text>
      <rect x="365" y="150" clip-path="url(#clipPath15)" fill="rgb(194,239,255)" width="20" height="40" stroke="none" />
      <rect x="365" y="150" clip-path="url(#clipPath15)" fill="none" width="19" height="39" stroke="rgb(194,239,255)" />
      <text xml:space="preserve" x="386" y="164" clip-path="url(#clipPath16)" stroke="none">in01</text>
      <rect x="365" y="270" clip-path="url(#clipPath17)" fill="rgb(194,239,255)" width="20" height="40" stroke="none" />
      <rect x="365" y="270" clip-path="url(#clipPath17)" fill="none" width="19" height="39" stroke="rgb(194,239,255)" />
      <text xml:space="preserve" x="386" y="284" clip-path="url(#clipPath18)" stroke="none">in02</text>
      <rect x="365" y="390" clip-path="url(#clipPath19)" fill="rgb(194,239,255)" width="20" height="40" stroke="none" />
      <rect x="365" y="390" clip-path="url(#clipPath19)" fill="none" width="19" height="39" stroke="rgb(194,239,255)" />
      <text xml:space="preserve" x="386" y="404" clip-path="url(#clipPath20)" stroke="none">in03</text>
      <rect x="365" y="510" clip-path="url(#clipPath21)" fill="rgb(194,239,255)" width="20" height="40" stroke="none" />
      <rect x="365" y="510" clip-path="url(#clipPath21)" fill="none" width="19" height="39" stroke="rgb(194,239,255)" />
      <text xml:space="preserve" x="386" y="524" clip-path="url(#clipPath22)" stroke="none">in04</text>
      <line clip-path="url(#clipPath23)" fill="none" x1="365" x2="235" y1="90" y2="90" stroke="rgb(136,136,136)" stroke-width="2.1" />
      <text x="204" y="86" clip-path="url(#clipPath24)" stroke="none" stroke-width="2.1" xml:space="preserve">sfAccessCustomerDatabase()</text>
      <line clip-path="url(#clipPath25)" fill="none" x1="242" x2="235" y1="87" y2="90" stroke="rgb(136,136,136)" stroke-width="2.1" />
      <line clip-path="url(#clipPath25)" fill="none" x1="235" x2="242" y1="90" y2="93" stroke="rgb(136,136,136)" stroke-width="2.1" />
      <line clip-path="url(#clipPath23)" fill="none" x1="365" x2="235" y1="210" y2="210" stroke="rgb(136,136,136)" stroke-width="2.1" />
      <text x="193" y="206" clip-path="url(#clipPath26)" stroke="none" stroke-width="2.1" xml:space="preserve">sfSearchCustomer("John Smith")</text>
      <line clip-path="url(#clipPath27)" fill="none" x1="242" x2="235" y1="207" y2="210" stroke="rgb(136,136,136)" stroke-width="2.1" />
      <line clip-path="url(#clipPath27)" fill="none" x1="235" x2="242" y1="210" y2="213" stroke="rgb(136,136,136)" stroke-width="2.1" />
      <line clip-path="url(#clipPath23)" fill="none" x1="365" x2="235" y1="330" y2="330" stroke="rgb(136,136,136)" stroke-width="2.1" />
      <text x="233" y="326" clip-path="url(#clipPath28)" stroke="none" stroke-width="2.1" xml:space="preserve">sfInspectCustomer()</text>
      <line clip-path="url(#clipPath29)" fill="none" x1="242" x2="235" y1="327" y2="330" stroke="rgb(136,136,136)" stroke-width="2.1" />
      <line clip-path="url(#clipPath29)" fill="none" x1="235" x2="242" y1="330" y2="333" stroke="rgb(136,136,136)" stroke-width="2.1" />
      <line clip-path="url(#clipPath23)" fill="none" x1="365" x2="235" y1="450" y2="450" stroke="rgb(136,136,136)" stroke-width="2.1" />
      <text x="24" y="446" clip-path="url(#clipPath30)" stroke="none" stroke-width="2.1" xml:space="preserve">sfSetNote("Customer is overdue on 2 books, suspended until fine of 20 Euro is paid")</text>
      <line clip-path="url(#clipPath31)" fill="none" x1="242" x2="235" y1="447" y2="450" stroke="rgb(136,136,136)" stroke-width="2.1" />
      <line clip-path="url(#clipPath31)" fill="none" x1="235" x2="242" y1="450" y2="453" stroke="rgb(136,136,136)" stroke-width="2.1" />
    </g>
    <g stroke-linecap="butt" font-size="14" fill="rgb(136,136,136)" stroke-dasharray="5,5" stroke="rgb(136,136,136)" stroke-width="2.1">
      <line clip-path="url(#clipPath23)" fill="none" x1="365" x2="235" y1="150" y2="150" />
      <text x="136" y="146" clip-path="url(#clipPath32)" fill="black" stroke="none" xml:space="preserve">ieCustomerDatabase(Customer database opened.)</text>
      <line clip-path="url(#clipPath33)" fill="none" x1="358" x2="365" y1="153" y2="150" stroke-dasharray="none" />
      <line clip-path="url(#clipPath33)" fill="none" x1="365" x2="358" y1="150" y2="147" stroke-dasharray="none" />
      <line clip-path="url(#clipPath23)" fill="none" x1="365" x2="235" y1="270" y2="270" />
      <text x="176" y="266" clip-path="url(#clipPath34)" fill="black" stroke="none" xml:space="preserve">ieCustomerQuery(Customer retrieved)</text>
      <line clip-path="url(#clipPath35)" fill="none" x1="358" x2="365" y1="273" y2="270" stroke-dasharray="none" />
      <line clip-path="url(#clipPath35)" fill="none" x1="365" x2="358" y1="270" y2="267" stroke-dasharray="none" />
      <line clip-path="url(#clipPath23)" fill="none" x1="365" x2="235" y1="390" y2="390" />
      <text x="157" y="386" clip-path="url(#clipPath36)" fill="black" stroke="none" xml:space="preserve">ieCustomerProfile(Customer profile opened)</text>
      <line clip-path="url(#clipPath37)" fill="none" x1="358" x2="365" y1="393" y2="390" stroke-dasharray="none" />
      <line clip-path="url(#clipPath37)" fill="none" x1="365" x2="358" y1="390" y2="387" stroke-dasharray="none" />
      <line clip-path="url(#clipPath23)" fill="none" x1="365" x2="235" y1="510" y2="510" />
      <text x="236" y="506" clip-path="url(#clipPath38)" fill="black" stroke="none" xml:space="preserve">ieSetNote(Note set)</text>
      <line clip-path="url(#clipPath39)" fill="none" x1="358" x2="365" y1="513" y2="510" stroke-dasharray="none" />
      <line clip-path="url(#clipPath39)" fill="none" x1="365" x2="358" y1="510" y2="507" stroke-dasharray="none" />
    </g>
  </g>
</svg>

