<?xml version="1.0" encoding="UTF-8"?>
<svg xmlns="http://www.w3.org/2000/svg" xmlns:xlink="http://www.w3.org/1999/xlink" stroke-dasharray="none" shape-rendering="auto" font-family="'Dialog'" width="743" text-rendering="auto" fill-opacity="1" contentScriptType="text/ecmascript" color-interpolation="auto" color-rendering="auto" preserveAspectRatio="xMidYMid meet" font-size="12" viewBox="0 0 743 610" fill="black" stroke="black" image-rendering="auto" stroke-miterlimit="10" zoomAndPan="magnify" version="1.0" stroke-linecap="square" stroke-linejoin="miter" contentStyleType="text/css" font-style="normal" height="610" stroke-width="1" stroke-dashoffset="0" font-weight="normal" stroke-opacity="1">
  <!--Generated by the Batik Graphics2D SVG Generator-->
  <defs id="genericDefs" />
  <g>
    <defs id="defs1">
      <clipPath clipPathUnits="userSpaceOnUse" id="clipPath1">
        <path d="M270 9 L342 9 L342 41 L270 41 L270 9 Z" />
      </clipPath>
      <clipPath clipPathUnits="userSpaceOnUse" id="clipPath2">
        <path d="M270 9 L346 9 L346 41 L270 41 L270 9 Z" />
      </clipPath>
      <clipPath clipPathUnits="userSpaceOnUse" id="clipPath3">
        <path d="M300 39 L312 39 L312 601 L300 601 L300 39 Z" />
      </clipPath>
      <clipPath clipPathUnits="userSpaceOnUse" id="clipPath4">
        <path d="M370 9 L522 9 L522 61 L370 61 L370 9 Z" />
      </clipPath>
      <clipPath clipPathUnits="userSpaceOnUse" id="clipPath5">
        <path d="M370 9 L525 9 L525 61 L370 61 L370 9 Z" />
      </clipPath>
      <clipPath clipPathUnits="userSpaceOnUse" id="clipPath6">
        <path d="M440 59 L452 59 L452 601 L440 601 L440 59 Z" />
      </clipPath>
      <clipPath clipPathUnits="userSpaceOnUse" id="clipPath7">
        <path d="M435 89 L457 89 L457 131 L435 131 L435 89 Z" />
      </clipPath>
      <clipPath clipPathUnits="userSpaceOnUse" id="clipPath8">
        <path d="M456 89 L500 89 L500 108 L456 108 L456 89 Z" />
      </clipPath>
      <clipPath clipPathUnits="userSpaceOnUse" id="clipPath9">
        <path d="M435 209 L457 209 L457 251 L435 251 L435 209 Z" />
      </clipPath>
      <clipPath clipPathUnits="userSpaceOnUse" id="clipPath10">
        <path d="M456 209 L500 209 L500 228 L456 228 L456 209 Z" />
      </clipPath>
      <clipPath clipPathUnits="userSpaceOnUse" id="clipPath11">
        <path d="M435 329 L457 329 L457 371 L435 371 L435 329 Z" />
      </clipPath>
      <clipPath clipPathUnits="userSpaceOnUse" id="clipPath12">
        <path d="M456 329 L500 329 L500 348 L456 348 L456 329 Z" />
      </clipPath>
      <clipPath clipPathUnits="userSpaceOnUse" id="clipPath13">
        <path d="M435 449 L457 449 L457 491 L435 491 L435 449 Z" />
      </clipPath>
      <clipPath clipPathUnits="userSpaceOnUse" id="clipPath14">
        <path d="M456 449 L500 449 L500 468 L456 468 L456 449 Z" />
      </clipPath>
      <clipPath clipPathUnits="userSpaceOnUse" id="clipPath15">
        <path d="M435 149 L457 149 L457 191 L435 191 L435 149 Z" />
      </clipPath>
      <clipPath clipPathUnits="userSpaceOnUse" id="clipPath16">
        <path d="M456 149 L491 149 L491 168 L456 168 L456 149 Z" />
      </clipPath>
      <clipPath clipPathUnits="userSpaceOnUse" id="clipPath17">
        <path d="M435 269 L457 269 L457 311 L435 311 L435 269 Z" />
      </clipPath>
      <clipPath clipPathUnits="userSpaceOnUse" id="clipPath18">
        <path d="M456 269 L491 269 L491 288 L456 288 L456 269 Z" />
      </clipPath>
      <clipPath clipPathUnits="userSpaceOnUse" id="clipPath19">
        <path d="M435 389 L457 389 L457 431 L435 431 L435 389 Z" />
      </clipPath>
      <clipPath clipPathUnits="userSpaceOnUse" id="clipPath20">
        <path d="M456 389 L491 389 L491 408 L456 408 L456 389 Z" />
      </clipPath>
      <clipPath clipPathUnits="userSpaceOnUse" id="clipPath21">
        <path d="M435 509 L457 509 L457 551 L435 551 L435 509 Z" />
      </clipPath>
      <clipPath clipPathUnits="userSpaceOnUse" id="clipPath22">
        <path d="M456 509 L491 509 L491 528 L456 528 L456 509 Z" />
      </clipPath>
      <clipPath clipPathUnits="userSpaceOnUse" id="clipPath23">
        <path d="M-1 -1 L744 -1 L744 611 L-1 611 L-1 -1 Z" />
      </clipPath>
      <clipPath clipPathUnits="userSpaceOnUse" id="clipPath24">
        <path d="M274 71 L472 71 L472 90 L274 90 L274 71 Z" />
      </clipPath>
      <clipPath clipPathUnits="userSpaceOnUse" id="clipPath25">
        <path d="M304 85 L316 85 L316 96 L304 96 L304 85 Z" />
      </clipPath>
      <clipPath clipPathUnits="userSpaceOnUse" id="clipPath26">
        <path d="M263 191 L482 191 L482 210 L263 210 L263 191 Z" />
      </clipPath>
      <clipPath clipPathUnits="userSpaceOnUse" id="clipPath27">
        <path d="M304 205 L316 205 L316 216 L304 216 L304 205 Z" />
      </clipPath>
      <clipPath clipPathUnits="userSpaceOnUse" id="clipPath28">
        <path d="M303 311 L442 311 L442 330 L303 330 L303 311 Z" />
      </clipPath>
      <clipPath clipPathUnits="userSpaceOnUse" id="clipPath29">
        <path d="M304 325 L316 325 L316 336 L304 336 L304 325 Z" />
      </clipPath>
      <clipPath clipPathUnits="userSpaceOnUse" id="clipPath30">
        <path d="M23 431 L723 431 L723 450 L23 450 L23 431 Z" />
      </clipPath>
      <clipPath clipPathUnits="userSpaceOnUse" id="clipPath31">
        <path d="M304 445 L316 445 L316 456 L304 456 L304 445 Z" />
      </clipPath>
      <clipPath clipPathUnits="userSpaceOnUse" id="clipPath32">
        <path d="M206 131 L540 131 L540 150 L206 150 L206 131 Z" />
      </clipPath>
      <clipPath clipPathUnits="userSpaceOnUse" id="clipPath33">
        <path d="M427 145 L439 145 L439 156 L427 156 L427 145 Z" />
      </clipPath>
      <clipPath clipPathUnits="userSpaceOnUse" id="clipPath34">
        <path d="M246 251 L499 251 L499 270 L246 270 L246 251 Z" />
      </clipPath>
      <clipPath clipPathUnits="userSpaceOnUse" id="clipPath35">
        <path d="M427 265 L439 265 L439 276 L427 276 L427 265 Z" />
      </clipPath>
      <clipPath clipPathUnits="userSpaceOnUse" id="clipPath36">
        <path d="M227 371 L519 371 L519 390 L227 390 L227 371 Z" />
      </clipPath>
      <clipPath clipPathUnits="userSpaceOnUse" id="clipPath37">
        <path d="M427 385 L439 385 L439 396 L427 396 L427 385 Z" />
      </clipPath>
      <clipPath clipPathUnits="userSpaceOnUse" id="clipPath38">
        <path d="M238 491 L507 491 L507 510 L238 510 L238 491 Z" />
      </clipPath>
      <clipPath clipPathUnits="userSpaceOnUse" id="clipPath39">
        <path d="M427 505 L439 505 L439 516 L427 516 L427 505 Z" />
      </clipPath>
    </defs>
    <g font-size="9" fill="rgb(238,201,142)" stroke-linejoin="round" stroke="rgb(238,201,142)" stroke-width="0" stroke-miterlimit="0">
      <rect x="271" y="10" clip-path="url(#clipPath1)" width="70" height="30" stroke="none" />
    </g>
    <g font-size="9" stroke-width="0.1" stroke-linecap="butt">
      <rect x="271" y="10" clip-path="url(#clipPath1)" fill="none" width="69" height="29" />
      <text x="282" font-size="14" y="30" clip-path="url(#clipPath2)" stroke="none" xml:space="preserve">System</text>
      <line clip-path="url(#clipPath3)" fill="none" x1="305" x2="305" y1="40" y2="600" stroke-dasharray="10,10" stroke-width="1.1" />
    </g>
    <g stroke-linecap="butt" font-size="9" fill="rgb(255,245,181)" stroke-dasharray="10,10" stroke="rgb(255,245,181)" stroke-width="1.1">
      <rect x="371" y="10" clip-path="url(#clipPath4)" width="150" height="50" stroke="none" />
    </g>
    <g font-size="9" stroke-width="0.1" stroke-linecap="butt">
      <rect x="371" y="10" clip-path="url(#clipPath4)" fill="none" width="149" height="49" />
      <text x="404" font-size="14" y="32" clip-path="url(#clipPath5)" stroke="none" xml:space="preserve">mikeSchmitz</text>
      <text x="403" font-size="14" y="49" clip-path="url(#clipPath5)" stroke="none" xml:space="preserve">: actLibrarian</text>
      <line clip-path="url(#clipPath6)" fill="none" x1="445" x2="445" y1="60" y2="600" stroke-dasharray="10,10" stroke-width="1.1" />
    </g>
    <g stroke-linecap="butt" font-size="9" fill="rgb(39,76,114)" stroke-dasharray="10,10" stroke="rgb(39,76,114)" stroke-width="1.1">
      <rect x="436" y="90" clip-path="url(#clipPath7)" width="20" height="40" stroke="none" />
      <rect x="436" y="90" clip-path="url(#clipPath7)" fill="none" width="19" stroke-dasharray="none" height="39" stroke-width="0.1" />
    </g>
    <g font-size="14" stroke-width="0.1" stroke-linecap="butt">
      <text xml:space="preserve" x="457" y="104" clip-path="url(#clipPath8)" stroke="none">out01</text>
      <rect x="436" y="210" clip-path="url(#clipPath9)" fill="rgb(39,76,114)" width="20" height="40" stroke="none" />
      <rect x="436" y="210" clip-path="url(#clipPath9)" fill="none" width="19" height="39" stroke="rgb(39,76,114)" />
      <text xml:space="preserve" x="457" y="224" clip-path="url(#clipPath10)" stroke="none">out02</text>
      <rect x="436" y="330" clip-path="url(#clipPath11)" fill="rgb(39,76,114)" width="20" height="40" stroke="none" />
      <rect x="436" y="330" clip-path="url(#clipPath11)" fill="none" width="19" height="39" stroke="rgb(39,76,114)" />
      <text xml:space="preserve" x="457" y="344" clip-path="url(#clipPath12)" stroke="none">out03</text>
      <rect x="436" y="450" clip-path="url(#clipPath13)" fill="rgb(39,76,114)" width="20" height="40" stroke="none" />
      <rect x="436" y="450" clip-path="url(#clipPath13)" fill="none" width="19" height="39" stroke="rgb(39,76,114)" />
      <text xml:space="preserve" x="457" y="464" clip-path="url(#clipPath14)" stroke="none">out04</text>
      <rect x="436" y="150" clip-path="url(#clipPath15)" fill="rgb(194,239,255)" width="20" height="40" stroke="none" />
      <rect x="436" y="150" clip-path="url(#clipPath15)" fill="none" width="19" height="39" stroke="rgb(194,239,255)" />
      <text xml:space="preserve" x="457" y="164" clip-path="url(#clipPath16)" stroke="none">in01</text>
      <rect x="436" y="270" clip-path="url(#clipPath17)" fill="rgb(194,239,255)" width="20" height="40" stroke="none" />
      <rect x="436" y="270" clip-path="url(#clipPath17)" fill="none" width="19" height="39" stroke="rgb(194,239,255)" />
      <text xml:space="preserve" x="457" y="284" clip-path="url(#clipPath18)" stroke="none">in02</text>
      <rect x="436" y="390" clip-path="url(#clipPath19)" fill="rgb(194,239,255)" width="20" height="40" stroke="none" />
      <rect x="436" y="390" clip-path="url(#clipPath19)" fill="none" width="19" height="39" stroke="rgb(194,239,255)" />
      <text xml:space="preserve" x="457" y="404" clip-path="url(#clipPath20)" stroke="none">in03</text>
      <rect x="436" y="510" clip-path="url(#clipPath21)" fill="rgb(194,239,255)" width="20" height="40" stroke="none" />
      <rect x="436" y="510" clip-path="url(#clipPath21)" fill="none" width="19" height="39" stroke="rgb(194,239,255)" />
      <text xml:space="preserve" x="457" y="524" clip-path="url(#clipPath22)" stroke="none">in04</text>
      <line clip-path="url(#clipPath23)" fill="none" x1="436" x2="306" y1="90" y2="90" stroke="rgb(136,136,136)" stroke-width="2.1" />
      <text x="275" y="86" clip-path="url(#clipPath24)" stroke="none" stroke-width="2.1" xml:space="preserve">sfAccessCustomerDatabase()</text>
      <line clip-path="url(#clipPath25)" fill="none" x1="313" x2="306" y1="87" y2="90" stroke="rgb(136,136,136)" stroke-width="2.1" />
      <line clip-path="url(#clipPath25)" fill="none" x1="306" x2="313" y1="90" y2="93" stroke="rgb(136,136,136)" stroke-width="2.1" />
      <line clip-path="url(#clipPath23)" fill="none" x1="436" x2="306" y1="210" y2="210" stroke="rgb(136,136,136)" stroke-width="2.1" />
      <text x="264" y="206" clip-path="url(#clipPath26)" stroke="none" stroke-width="2.1" xml:space="preserve">sfSearchCustomer("John Smith")</text>
      <line clip-path="url(#clipPath27)" fill="none" x1="313" x2="306" y1="207" y2="210" stroke="rgb(136,136,136)" stroke-width="2.1" />
      <line clip-path="url(#clipPath27)" fill="none" x1="306" x2="313" y1="210" y2="213" stroke="rgb(136,136,136)" stroke-width="2.1" />
      <line clip-path="url(#clipPath23)" fill="none" x1="436" x2="306" y1="330" y2="330" stroke="rgb(136,136,136)" stroke-width="2.1" />
      <text x="304" y="326" clip-path="url(#clipPath28)" stroke="none" stroke-width="2.1" xml:space="preserve">sfInspectCustomer()</text>
      <line clip-path="url(#clipPath29)" fill="none" x1="313" x2="306" y1="327" y2="330" stroke="rgb(136,136,136)" stroke-width="2.1" />
      <line clip-path="url(#clipPath29)" fill="none" x1="306" x2="313" y1="330" y2="333" stroke="rgb(136,136,136)" stroke-width="2.1" />
      <line clip-path="url(#clipPath23)" fill="none" x1="436" x2="306" y1="450" y2="450" stroke="rgb(136,136,136)" stroke-width="2.1" />
      <text x="24" y="446" clip-path="url(#clipPath30)" stroke="none" stroke-width="2.1" xml:space="preserve">sfRequestCustomerBan("Second time now the customer has returned a book in an almost destroyed state")</text>
      <line clip-path="url(#clipPath31)" fill="none" x1="313" x2="306" y1="447" y2="450" stroke="rgb(136,136,136)" stroke-width="2.1" />
      <line clip-path="url(#clipPath31)" fill="none" x1="306" x2="313" y1="450" y2="453" stroke="rgb(136,136,136)" stroke-width="2.1" />
    </g>
    <g stroke-linecap="butt" font-size="14" fill="rgb(136,136,136)" stroke-dasharray="5,5" stroke="rgb(136,136,136)" stroke-width="2.1">
      <line clip-path="url(#clipPath23)" fill="none" x1="436" x2="306" y1="150" y2="150" />
      <text x="207" y="146" clip-path="url(#clipPath32)" fill="black" stroke="none" xml:space="preserve">ieCustomerDatabase(Customer database opened.)</text>
      <line clip-path="url(#clipPath33)" fill="none" x1="429" x2="436" y1="153" y2="150" stroke-dasharray="none" />
      <line clip-path="url(#clipPath33)" fill="none" x1="436" x2="429" y1="150" y2="147" stroke-dasharray="none" />
      <line clip-path="url(#clipPath23)" fill="none" x1="436" x2="306" y1="270" y2="270" />
      <text x="247" y="266" clip-path="url(#clipPath34)" fill="black" stroke="none" xml:space="preserve">ieCustomerQuery(Customer retrieved)</text>
      <line clip-path="url(#clipPath35)" fill="none" x1="429" x2="436" y1="273" y2="270" stroke-dasharray="none" />
      <line clip-path="url(#clipPath35)" fill="none" x1="436" x2="429" y1="270" y2="267" stroke-dasharray="none" />
      <line clip-path="url(#clipPath23)" fill="none" x1="436" x2="306" y1="390" y2="390" />
      <text x="228" y="386" clip-path="url(#clipPath36)" fill="black" stroke="none" xml:space="preserve">ieCustomerProfile(Customer profile opened)</text>
      <line clip-path="url(#clipPath37)" fill="none" x1="429" x2="436" y1="393" y2="390" stroke-dasharray="none" />
      <line clip-path="url(#clipPath37)" fill="none" x1="436" x2="429" y1="390" y2="387" stroke-dasharray="none" />
      <line clip-path="url(#clipPath23)" fill="none" x1="436" x2="306" y1="510" y2="510" />
      <text x="239" y="506" clip-path="url(#clipPath38)" fill="black" stroke="none" xml:space="preserve">ieSentBanRequest(Ban request send off)</text>
      <line clip-path="url(#clipPath39)" fill="none" x1="429" x2="436" y1="513" y2="510" stroke-dasharray="none" />
      <line clip-path="url(#clipPath39)" fill="none" x1="436" x2="429" y1="510" y2="507" stroke-dasharray="none" />
    </g>
  </g>
</svg>

