<?xml version="1.0" encoding="UTF-8"?>
<svg xmlns="http://www.w3.org/2000/svg" xmlns:xlink="http://www.w3.org/1999/xlink" stroke-dasharray="none" shape-rendering="auto" font-family="'Dialog'" width="342" text-rendering="auto" fill-opacity="1" contentScriptType="text/ecmascript" color-interpolation="auto" color-rendering="auto" preserveAspectRatio="xMidYMid meet" font-size="12" viewBox="0 0 342 370" fill="black" stroke="black" image-rendering="auto" stroke-miterlimit="10" zoomAndPan="magnify" version="1.0" stroke-linecap="square" stroke-linejoin="miter" contentStyleType="text/css" font-style="normal" height="370" stroke-width="1" stroke-dashoffset="0" font-weight="normal" stroke-opacity="1">
  <!--Generated by the Batik Graphics2D SVG Generator-->
  <defs id="genericDefs" />
  <g>
    <defs id="defs1">
      <clipPath clipPathUnits="userSpaceOnUse" id="clipPath1">
        <path d="M70 9 L142 9 L142 41 L70 41 L70 9 Z" />
      </clipPath>
      <clipPath clipPathUnits="userSpaceOnUse" id="clipPath2">
        <path d="M70 9 L146 9 L146 41 L70 41 L70 9 Z" />
      </clipPath>
      <clipPath clipPathUnits="userSpaceOnUse" id="clipPath3">
        <path d="M100 39 L112 39 L112 361 L100 361 L100 39 Z" />
      </clipPath>
      <clipPath clipPathUnits="userSpaceOnUse" id="clipPath4">
        <path d="M170 9 L322 9 L322 61 L170 61 L170 9 Z" />
      </clipPath>
      <clipPath clipPathUnits="userSpaceOnUse" id="clipPath5">
        <path d="M170 9 L325 9 L325 61 L170 61 L170 9 Z" />
      </clipPath>
      <clipPath clipPathUnits="userSpaceOnUse" id="clipPath6">
        <path d="M240 59 L252 59 L252 361 L240 361 L240 59 Z" />
      </clipPath>
      <clipPath clipPathUnits="userSpaceOnUse" id="clipPath7">
        <path d="M235 89 L257 89 L257 131 L235 131 L235 89 Z" />
      </clipPath>
      <clipPath clipPathUnits="userSpaceOnUse" id="clipPath8">
        <path d="M256 89 L300 89 L300 108 L256 108 L256 89 Z" />
      </clipPath>
      <clipPath clipPathUnits="userSpaceOnUse" id="clipPath9">
        <path d="M235 209 L257 209 L257 251 L235 251 L235 209 Z" />
      </clipPath>
      <clipPath clipPathUnits="userSpaceOnUse" id="clipPath10">
        <path d="M256 209 L300 209 L300 228 L256 228 L256 209 Z" />
      </clipPath>
      <clipPath clipPathUnits="userSpaceOnUse" id="clipPath11">
        <path d="M235 149 L257 149 L257 191 L235 191 L235 149 Z" />
      </clipPath>
      <clipPath clipPathUnits="userSpaceOnUse" id="clipPath12">
        <path d="M256 149 L291 149 L291 168 L256 168 L256 149 Z" />
      </clipPath>
      <clipPath clipPathUnits="userSpaceOnUse" id="clipPath13">
        <path d="M235 269 L257 269 L257 311 L235 311 L235 269 Z" />
      </clipPath>
      <clipPath clipPathUnits="userSpaceOnUse" id="clipPath14">
        <path d="M256 269 L291 269 L291 288 L256 288 L256 269 Z" />
      </clipPath>
      <clipPath clipPathUnits="userSpaceOnUse" id="clipPath15">
        <path d="M-1 -1 L343 -1 L343 371 L-1 371 L-1 -1 Z" />
      </clipPath>
      <clipPath clipPathUnits="userSpaceOnUse" id="clipPath16">
        <path d="M49 71 L297 71 L297 90 L49 90 L49 71 Z" />
      </clipPath>
      <clipPath clipPathUnits="userSpaceOnUse" id="clipPath17">
        <path d="M104 85 L116 85 L116 96 L104 96 L104 85 Z" />
      </clipPath>
      <clipPath clipPathUnits="userSpaceOnUse" id="clipPath18">
        <path d="M39 191 L306 191 L306 210 L39 210 L39 191 Z" />
      </clipPath>
      <clipPath clipPathUnits="userSpaceOnUse" id="clipPath19">
        <path d="M104 205 L116 205 L116 216 L104 216 L104 205 Z" />
      </clipPath>
      <clipPath clipPathUnits="userSpaceOnUse" id="clipPath20">
        <path d="M57 131 L288 131 L288 150 L57 150 L57 131 Z" />
      </clipPath>
      <clipPath clipPathUnits="userSpaceOnUse" id="clipPath21">
        <path d="M227 145 L239 145 L239 156 L227 156 L227 145 Z" />
      </clipPath>
      <clipPath clipPathUnits="userSpaceOnUse" id="clipPath22">
        <path d="M23 251 L322 251 L322 270 L23 270 L23 251 Z" />
      </clipPath>
      <clipPath clipPathUnits="userSpaceOnUse" id="clipPath23">
        <path d="M227 265 L239 265 L239 276 L227 276 L227 265 Z" />
      </clipPath>
    </defs>
    <g font-size="9" fill="rgb(238,201,142)" stroke-linejoin="round" stroke="rgb(238,201,142)" stroke-width="0" stroke-miterlimit="0">
      <rect x="71" y="10" clip-path="url(#clipPath1)" width="70" height="30" stroke="none" />
    </g>
    <g font-size="9" stroke-width="0.1" stroke-linecap="butt">
      <rect x="71" y="10" clip-path="url(#clipPath1)" fill="none" width="69" height="29" />
      <text x="82" font-size="14" y="30" clip-path="url(#clipPath2)" stroke="none" xml:space="preserve">System</text>
      <line clip-path="url(#clipPath3)" fill="none" x1="105" x2="105" y1="40" y2="360" stroke-dasharray="10,10" stroke-width="1.1" />
    </g>
    <g stroke-linecap="butt" font-size="9" fill="rgb(255,245,181)" stroke-dasharray="10,10" stroke="rgb(255,245,181)" stroke-width="1.1">
      <rect x="171" y="10" clip-path="url(#clipPath4)" width="150" height="50" stroke="none" />
    </g>
    <g font-size="9" stroke-width="0.1" stroke-linecap="butt">
      <rect x="171" y="10" clip-path="url(#clipPath4)" fill="none" width="149" height="49" />
      <text x="204" font-size="14" y="32" clip-path="url(#clipPath5)" stroke="none" xml:space="preserve">mikeSchmitz</text>
      <text x="203" font-size="14" y="49" clip-path="url(#clipPath5)" stroke="none" xml:space="preserve">: actLibrarian</text>
      <line clip-path="url(#clipPath6)" fill="none" x1="245" x2="245" y1="60" y2="360" stroke-dasharray="10,10" stroke-width="1.1" />
    </g>
    <g stroke-linecap="butt" font-size="9" fill="rgb(39,76,114)" stroke-dasharray="10,10" stroke="rgb(39,76,114)" stroke-width="1.1">
      <rect x="236" y="90" clip-path="url(#clipPath7)" width="20" height="40" stroke="none" />
      <rect x="236" y="90" clip-path="url(#clipPath7)" fill="none" width="19" stroke-dasharray="none" height="39" stroke-width="0.1" />
    </g>
    <g font-size="14" stroke-width="0.1" stroke-linecap="butt">
      <text xml:space="preserve" x="257" y="104" clip-path="url(#clipPath8)" stroke="none">out01</text>
      <rect x="236" y="210" clip-path="url(#clipPath9)" fill="rgb(39,76,114)" width="20" height="40" stroke="none" />
      <rect x="236" y="210" clip-path="url(#clipPath9)" fill="none" width="19" height="39" stroke="rgb(39,76,114)" />
      <text xml:space="preserve" x="257" y="224" clip-path="url(#clipPath10)" stroke="none">out02</text>
      <rect x="236" y="150" clip-path="url(#clipPath11)" fill="rgb(194,239,255)" width="20" height="40" stroke="none" />
      <rect x="236" y="150" clip-path="url(#clipPath11)" fill="none" width="19" height="39" stroke="rgb(194,239,255)" />
      <text xml:space="preserve" x="257" y="164" clip-path="url(#clipPath12)" stroke="none">in01</text>
      <rect x="236" y="270" clip-path="url(#clipPath13)" fill="rgb(194,239,255)" width="20" height="40" stroke="none" />
      <rect x="236" y="270" clip-path="url(#clipPath13)" fill="none" width="19" height="39" stroke="rgb(194,239,255)" />
      <text xml:space="preserve" x="257" y="284" clip-path="url(#clipPath14)" stroke="none">in02</text>
      <line clip-path="url(#clipPath15)" fill="none" x1="236" x2="106" y1="90" y2="90" stroke="rgb(136,136,136)" stroke-width="2.1" />
      <text x="50" y="86" clip-path="url(#clipPath16)" stroke="none" stroke-width="2.1" xml:space="preserve">sfAddLoan("36958","What if?","003")</text>
      <line clip-path="url(#clipPath17)" fill="none" x1="113" x2="106" y1="87" y2="90" stroke="rgb(136,136,136)" stroke-width="2.1" />
      <line clip-path="url(#clipPath17)" fill="none" x1="106" x2="113" y1="90" y2="93" stroke="rgb(136,136,136)" stroke-width="2.1" />
      <line clip-path="url(#clipPath15)" fill="none" x1="236" x2="106" y1="210" y2="210" stroke="rgb(136,136,136)" stroke-width="2.1" />
      <text x="40" y="206" clip-path="url(#clipPath18)" stroke="none" stroke-width="2.1" xml:space="preserve">sfReturnBook("36958","What if?","003")</text>
      <line clip-path="url(#clipPath19)" fill="none" x1="113" x2="106" y1="207" y2="210" stroke="rgb(136,136,136)" stroke-width="2.1" />
      <line clip-path="url(#clipPath19)" fill="none" x1="106" x2="113" y1="210" y2="213" stroke="rgb(136,136,136)" stroke-width="2.1" />
    </g>
    <g stroke-linecap="butt" font-size="14" fill="rgb(136,136,136)" stroke-dasharray="5,5" stroke="rgb(136,136,136)" stroke-width="2.1">
      <line clip-path="url(#clipPath15)" fill="none" x1="236" x2="106" y1="150" y2="150" />
      <text x="58" y="146" clip-path="url(#clipPath20)" fill="black" stroke="none" xml:space="preserve">ieLoan(Loan successfully granted.)</text>
      <line clip-path="url(#clipPath21)" fill="none" x1="229" x2="236" y1="153" y2="150" stroke-dasharray="none" />
      <line clip-path="url(#clipPath21)" fill="none" x1="236" x2="229" y1="150" y2="147" stroke-dasharray="none" />
      <line clip-path="url(#clipPath15)" fill="none" x1="236" x2="106" y1="270" y2="270" />
      <text x="24" y="266" clip-path="url(#clipPath22)" fill="black" stroke="none" xml:space="preserve">ieReturnedBook(Book successfully returned.)</text>
      <line clip-path="url(#clipPath23)" fill="none" x1="229" x2="236" y1="273" y2="270" stroke-dasharray="none" />
      <line clip-path="url(#clipPath23)" fill="none" x1="236" x2="229" y1="270" y2="267" stroke-dasharray="none" />
    </g>
  </g>
</svg>

