<?xml version="1.0" encoding="UTF-8"?>
<svg xmlns="http://www.w3.org/2000/svg" xmlns:xlink="http://www.w3.org/1999/xlink" stroke-dasharray="none" shape-rendering="auto" font-family="'Dialog'" width="377" text-rendering="auto" fill-opacity="1" contentScriptType="text/ecmascript" color-interpolation="auto" color-rendering="auto" preserveAspectRatio="xMidYMid meet" font-size="12" viewBox="0 0 377 610" fill="black" stroke="black" image-rendering="auto" stroke-miterlimit="10" zoomAndPan="magnify" version="1.0" stroke-linecap="square" stroke-linejoin="miter" contentStyleType="text/css" font-style="normal" height="610" stroke-width="1" stroke-dashoffset="0" font-weight="normal" stroke-opacity="1">
  <!--Generated by the Batik Graphics2D SVG Generator-->
  <defs id="genericDefs" />
  <g>
    <defs id="defs1">
      <clipPath clipPathUnits="userSpaceOnUse" id="clipPath1">
        <path d="M87 9 L159 9 L159 41 L87 41 L87 9 Z" />
      </clipPath>
      <clipPath clipPathUnits="userSpaceOnUse" id="clipPath2">
        <path d="M87 9 L163 9 L163 41 L87 41 L87 9 Z" />
      </clipPath>
      <clipPath clipPathUnits="userSpaceOnUse" id="clipPath3">
        <path d="M117 39 L129 39 L129 601 L117 601 L117 39 Z" />
      </clipPath>
      <clipPath clipPathUnits="userSpaceOnUse" id="clipPath4">
        <path d="M187 9 L339 9 L339 61 L187 61 L187 9 Z" />
      </clipPath>
      <clipPath clipPathUnits="userSpaceOnUse" id="clipPath5">
        <path d="M187 9 L342 9 L342 61 L187 61 L187 9 Z" />
      </clipPath>
      <clipPath clipPathUnits="userSpaceOnUse" id="clipPath6">
        <path d="M257 59 L269 59 L269 601 L257 601 L257 59 Z" />
      </clipPath>
      <clipPath clipPathUnits="userSpaceOnUse" id="clipPath7">
        <path d="M252 89 L274 89 L274 131 L252 131 L252 89 Z" />
      </clipPath>
      <clipPath clipPathUnits="userSpaceOnUse" id="clipPath8">
        <path d="M273 89 L317 89 L317 108 L273 108 L273 89 Z" />
      </clipPath>
      <clipPath clipPathUnits="userSpaceOnUse" id="clipPath9">
        <path d="M252 209 L274 209 L274 251 L252 251 L252 209 Z" />
      </clipPath>
      <clipPath clipPathUnits="userSpaceOnUse" id="clipPath10">
        <path d="M273 209 L317 209 L317 228 L273 228 L273 209 Z" />
      </clipPath>
      <clipPath clipPathUnits="userSpaceOnUse" id="clipPath11">
        <path d="M252 329 L274 329 L274 371 L252 371 L252 329 Z" />
      </clipPath>
      <clipPath clipPathUnits="userSpaceOnUse" id="clipPath12">
        <path d="M273 329 L317 329 L317 348 L273 348 L273 329 Z" />
      </clipPath>
      <clipPath clipPathUnits="userSpaceOnUse" id="clipPath13">
        <path d="M252 449 L274 449 L274 491 L252 491 L252 449 Z" />
      </clipPath>
      <clipPath clipPathUnits="userSpaceOnUse" id="clipPath14">
        <path d="M273 449 L317 449 L317 468 L273 468 L273 449 Z" />
      </clipPath>
      <clipPath clipPathUnits="userSpaceOnUse" id="clipPath15">
        <path d="M252 149 L274 149 L274 191 L252 191 L252 149 Z" />
      </clipPath>
      <clipPath clipPathUnits="userSpaceOnUse" id="clipPath16">
        <path d="M273 149 L308 149 L308 168 L273 168 L273 149 Z" />
      </clipPath>
      <clipPath clipPathUnits="userSpaceOnUse" id="clipPath17">
        <path d="M252 269 L274 269 L274 311 L252 311 L252 269 Z" />
      </clipPath>
      <clipPath clipPathUnits="userSpaceOnUse" id="clipPath18">
        <path d="M273 269 L308 269 L308 288 L273 288 L273 269 Z" />
      </clipPath>
      <clipPath clipPathUnits="userSpaceOnUse" id="clipPath19">
        <path d="M252 389 L274 389 L274 431 L252 431 L252 389 Z" />
      </clipPath>
      <clipPath clipPathUnits="userSpaceOnUse" id="clipPath20">
        <path d="M273 389 L308 389 L308 408 L273 408 L273 389 Z" />
      </clipPath>
      <clipPath clipPathUnits="userSpaceOnUse" id="clipPath21">
        <path d="M252 509 L274 509 L274 551 L252 551 L252 509 Z" />
      </clipPath>
      <clipPath clipPathUnits="userSpaceOnUse" id="clipPath22">
        <path d="M273 509 L308 509 L308 528 L273 528 L273 509 Z" />
      </clipPath>
      <clipPath clipPathUnits="userSpaceOnUse" id="clipPath23">
        <path d="M-1 -1 L378 -1 L378 611 L-1 611 L-1 -1 Z" />
      </clipPath>
      <clipPath clipPathUnits="userSpaceOnUse" id="clipPath24">
        <path d="M91 71 L289 71 L289 90 L91 90 L91 71 Z" />
      </clipPath>
      <clipPath clipPathUnits="userSpaceOnUse" id="clipPath25">
        <path d="M121 85 L133 85 L133 96 L121 96 L121 85 Z" />
      </clipPath>
      <clipPath clipPathUnits="userSpaceOnUse" id="clipPath26">
        <path d="M80 191 L299 191 L299 210 L80 210 L80 191 Z" />
      </clipPath>
      <clipPath clipPathUnits="userSpaceOnUse" id="clipPath27">
        <path d="M121 205 L133 205 L133 216 L121 216 L121 205 Z" />
      </clipPath>
      <clipPath clipPathUnits="userSpaceOnUse" id="clipPath28">
        <path d="M120 311 L259 311 L259 330 L120 330 L120 311 Z" />
      </clipPath>
      <clipPath clipPathUnits="userSpaceOnUse" id="clipPath29">
        <path d="M121 325 L133 325 L133 336 L121 336 L121 325 Z" />
      </clipPath>
      <clipPath clipPathUnits="userSpaceOnUse" id="clipPath30">
        <path d="M116 431 L264 431 L264 450 L116 450 L116 431 Z" />
      </clipPath>
      <clipPath clipPathUnits="userSpaceOnUse" id="clipPath31">
        <path d="M121 445 L133 445 L133 456 L121 456 L121 445 Z" />
      </clipPath>
      <clipPath clipPathUnits="userSpaceOnUse" id="clipPath32">
        <path d="M23 131 L357 131 L357 150 L23 150 L23 131 Z" />
      </clipPath>
      <clipPath clipPathUnits="userSpaceOnUse" id="clipPath33">
        <path d="M244 145 L256 145 L256 156 L244 156 L244 145 Z" />
      </clipPath>
      <clipPath clipPathUnits="userSpaceOnUse" id="clipPath34">
        <path d="M63 251 L316 251 L316 270 L63 270 L63 251 Z" />
      </clipPath>
      <clipPath clipPathUnits="userSpaceOnUse" id="clipPath35">
        <path d="M244 265 L256 265 L256 276 L244 276 L244 265 Z" />
      </clipPath>
      <clipPath clipPathUnits="userSpaceOnUse" id="clipPath36">
        <path d="M44 371 L336 371 L336 390 L44 390 L44 371 Z" />
      </clipPath>
      <clipPath clipPathUnits="userSpaceOnUse" id="clipPath37">
        <path d="M244 385 L256 385 L256 396 L244 396 L244 385 Z" />
      </clipPath>
      <clipPath clipPathUnits="userSpaceOnUse" id="clipPath38">
        <path d="M39 491 L340 491 L340 510 L39 510 L39 491 Z" />
      </clipPath>
      <clipPath clipPathUnits="userSpaceOnUse" id="clipPath39">
        <path d="M244 505 L256 505 L256 516 L244 516 L244 505 Z" />
      </clipPath>
    </defs>
    <g font-size="9" fill="rgb(238,201,142)" stroke-linejoin="round" stroke="rgb(238,201,142)" stroke-width="0" stroke-miterlimit="0">
      <rect x="88" y="10" clip-path="url(#clipPath1)" width="70" height="30" stroke="none" />
    </g>
    <g font-size="9" stroke-width="0.1" stroke-linecap="butt">
      <rect x="88" y="10" clip-path="url(#clipPath1)" fill="none" width="69" height="29" />
      <text x="99" font-size="14" y="30" clip-path="url(#clipPath2)" stroke="none" xml:space="preserve">System</text>
      <line clip-path="url(#clipPath3)" fill="none" x1="122" x2="122" y1="40" y2="600" stroke-dasharray="10,10" stroke-width="1.1" />
    </g>
    <g stroke-linecap="butt" font-size="9" fill="rgb(255,245,181)" stroke-dasharray="10,10" stroke="rgb(255,245,181)" stroke-width="1.1">
      <rect x="188" y="10" clip-path="url(#clipPath4)" width="150" height="50" stroke="none" />
    </g>
    <g font-size="9" stroke-width="0.1" stroke-linecap="butt">
      <rect x="188" y="10" clip-path="url(#clipPath4)" fill="none" width="149" height="49" />
      <text x="221" font-size="14" y="32" clip-path="url(#clipPath5)" stroke="none" xml:space="preserve">mikeSchmitz</text>
      <text x="220" font-size="14" y="49" clip-path="url(#clipPath5)" stroke="none" xml:space="preserve">: actLibrarian</text>
      <line clip-path="url(#clipPath6)" fill="none" x1="262" x2="262" y1="60" y2="600" stroke-dasharray="10,10" stroke-width="1.1" />
    </g>
    <g stroke-linecap="butt" font-size="9" fill="rgb(39,76,114)" stroke-dasharray="10,10" stroke="rgb(39,76,114)" stroke-width="1.1">
      <rect x="253" y="90" clip-path="url(#clipPath7)" width="20" height="40" stroke="none" />
      <rect x="253" y="90" clip-path="url(#clipPath7)" fill="none" width="19" stroke-dasharray="none" height="39" stroke-width="0.1" />
    </g>
    <g font-size="14" stroke-width="0.1" stroke-linecap="butt">
      <text xml:space="preserve" x="274" y="104" clip-path="url(#clipPath8)" stroke="none">out01</text>
      <rect x="253" y="210" clip-path="url(#clipPath9)" fill="rgb(39,76,114)" width="20" height="40" stroke="none" />
      <rect x="253" y="210" clip-path="url(#clipPath9)" fill="none" width="19" height="39" stroke="rgb(39,76,114)" />
      <text xml:space="preserve" x="274" y="224" clip-path="url(#clipPath10)" stroke="none">out02</text>
      <rect x="253" y="330" clip-path="url(#clipPath11)" fill="rgb(39,76,114)" width="20" height="40" stroke="none" />
      <rect x="253" y="330" clip-path="url(#clipPath11)" fill="none" width="19" height="39" stroke="rgb(39,76,114)" />
      <text xml:space="preserve" x="274" y="344" clip-path="url(#clipPath12)" stroke="none">out03</text>
      <rect x="253" y="450" clip-path="url(#clipPath13)" fill="rgb(39,76,114)" width="20" height="40" stroke="none" />
      <rect x="253" y="450" clip-path="url(#clipPath13)" fill="none" width="19" height="39" stroke="rgb(39,76,114)" />
      <text xml:space="preserve" x="274" y="464" clip-path="url(#clipPath14)" stroke="none">out04</text>
      <rect x="253" y="150" clip-path="url(#clipPath15)" fill="rgb(194,239,255)" width="20" height="40" stroke="none" />
      <rect x="253" y="150" clip-path="url(#clipPath15)" fill="none" width="19" height="39" stroke="rgb(194,239,255)" />
      <text xml:space="preserve" x="274" y="164" clip-path="url(#clipPath16)" stroke="none">in01</text>
      <rect x="253" y="270" clip-path="url(#clipPath17)" fill="rgb(194,239,255)" width="20" height="40" stroke="none" />
      <rect x="253" y="270" clip-path="url(#clipPath17)" fill="none" width="19" height="39" stroke="rgb(194,239,255)" />
      <text xml:space="preserve" x="274" y="284" clip-path="url(#clipPath18)" stroke="none">in02</text>
      <rect x="253" y="390" clip-path="url(#clipPath19)" fill="rgb(194,239,255)" width="20" height="40" stroke="none" />
      <rect x="253" y="390" clip-path="url(#clipPath19)" fill="none" width="19" height="39" stroke="rgb(194,239,255)" />
      <text xml:space="preserve" x="274" y="404" clip-path="url(#clipPath20)" stroke="none">in03</text>
      <rect x="253" y="510" clip-path="url(#clipPath21)" fill="rgb(194,239,255)" width="20" height="40" stroke="none" />
      <rect x="253" y="510" clip-path="url(#clipPath21)" fill="none" width="19" height="39" stroke="rgb(194,239,255)" />
      <text xml:space="preserve" x="274" y="524" clip-path="url(#clipPath22)" stroke="none">in04</text>
      <line clip-path="url(#clipPath23)" fill="none" x1="253" x2="123" y1="90" y2="90" stroke="rgb(136,136,136)" stroke-width="2.1" />
      <text x="92" y="86" clip-path="url(#clipPath24)" stroke="none" stroke-width="2.1" xml:space="preserve">sfAccessCustomerDatabase()</text>
      <line clip-path="url(#clipPath25)" fill="none" x1="130" x2="123" y1="87" y2="90" stroke="rgb(136,136,136)" stroke-width="2.1" />
      <line clip-path="url(#clipPath25)" fill="none" x1="123" x2="130" y1="90" y2="93" stroke="rgb(136,136,136)" stroke-width="2.1" />
      <line clip-path="url(#clipPath23)" fill="none" x1="253" x2="123" y1="210" y2="210" stroke="rgb(136,136,136)" stroke-width="2.1" />
      <text x="81" y="206" clip-path="url(#clipPath26)" stroke="none" stroke-width="2.1" xml:space="preserve">sfSearchCustomer("John Smith")</text>
      <line clip-path="url(#clipPath27)" fill="none" x1="130" x2="123" y1="207" y2="210" stroke="rgb(136,136,136)" stroke-width="2.1" />
      <line clip-path="url(#clipPath27)" fill="none" x1="123" x2="130" y1="210" y2="213" stroke="rgb(136,136,136)" stroke-width="2.1" />
      <line clip-path="url(#clipPath23)" fill="none" x1="253" x2="123" y1="330" y2="330" stroke="rgb(136,136,136)" stroke-width="2.1" />
      <text x="121" y="326" clip-path="url(#clipPath28)" stroke="none" stroke-width="2.1" xml:space="preserve">sfInspectCustomer()</text>
      <line clip-path="url(#clipPath29)" fill="none" x1="130" x2="123" y1="327" y2="330" stroke="rgb(136,136,136)" stroke-width="2.1" />
      <line clip-path="url(#clipPath29)" fill="none" x1="123" x2="130" y1="330" y2="333" stroke="rgb(136,136,136)" stroke-width="2.1" />
      <line clip-path="url(#clipPath23)" fill="none" x1="253" x2="123" y1="450" y2="450" stroke="rgb(136,136,136)" stroke-width="2.1" />
      <text x="117" y="446" clip-path="url(#clipPath30)" stroke="none" stroke-width="2.1" xml:space="preserve">sfSuspendCustomer()</text>
      <line clip-path="url(#clipPath31)" fill="none" x1="130" x2="123" y1="447" y2="450" stroke="rgb(136,136,136)" stroke-width="2.1" />
      <line clip-path="url(#clipPath31)" fill="none" x1="123" x2="130" y1="450" y2="453" stroke="rgb(136,136,136)" stroke-width="2.1" />
    </g>
    <g stroke-linecap="butt" font-size="14" fill="rgb(136,136,136)" stroke-dasharray="5,5" stroke="rgb(136,136,136)" stroke-width="2.1">
      <line clip-path="url(#clipPath23)" fill="none" x1="253" x2="123" y1="150" y2="150" />
      <text x="24" y="146" clip-path="url(#clipPath32)" fill="black" stroke="none" xml:space="preserve">ieCustomerDatabase(Customer database opened.)</text>
      <line clip-path="url(#clipPath33)" fill="none" x1="246" x2="253" y1="153" y2="150" stroke-dasharray="none" />
      <line clip-path="url(#clipPath33)" fill="none" x1="253" x2="246" y1="150" y2="147" stroke-dasharray="none" />
      <line clip-path="url(#clipPath23)" fill="none" x1="253" x2="123" y1="270" y2="270" />
      <text x="64" y="266" clip-path="url(#clipPath34)" fill="black" stroke="none" xml:space="preserve">ieCustomerQuery(Customer retrieved)</text>
      <line clip-path="url(#clipPath35)" fill="none" x1="246" x2="253" y1="273" y2="270" stroke-dasharray="none" />
      <line clip-path="url(#clipPath35)" fill="none" x1="253" x2="246" y1="270" y2="267" stroke-dasharray="none" />
      <line clip-path="url(#clipPath23)" fill="none" x1="253" x2="123" y1="390" y2="390" />
      <text x="45" y="386" clip-path="url(#clipPath36)" fill="black" stroke="none" xml:space="preserve">ieCustomerProfile(Customer profile opened)</text>
      <line clip-path="url(#clipPath37)" fill="none" x1="246" x2="253" y1="393" y2="390" stroke-dasharray="none" />
      <line clip-path="url(#clipPath37)" fill="none" x1="253" x2="246" y1="390" y2="387" stroke-dasharray="none" />
      <line clip-path="url(#clipPath23)" fill="none" x1="253" x2="123" y1="510" y2="510" />
      <text x="40" y="506" clip-path="url(#clipPath38)" fill="black" stroke="none" xml:space="preserve">ieCustomerSuspended(Customer suspended)</text>
      <line clip-path="url(#clipPath39)" fill="none" x1="246" x2="253" y1="513" y2="510" stroke-dasharray="none" />
      <line clip-path="url(#clipPath39)" fill="none" x1="253" x2="246" y1="510" y2="507" stroke-dasharray="none" />
    </g>
  </g>
</svg>

