<?xml version="1.0" encoding="UTF-8"?>
<svg xmlns="http://www.w3.org/2000/svg" xmlns:xlink="http://www.w3.org/1999/xlink" stroke-dasharray="none" shape-rendering="auto" font-family="'Dialog'" width="339" text-rendering="auto" fill-opacity="1" contentScriptType="text/ecmascript" color-interpolation="auto" color-rendering="auto" preserveAspectRatio="xMidYMid meet" font-size="12" viewBox="0 0 339 370" fill="black" stroke="black" image-rendering="auto" stroke-miterlimit="10" zoomAndPan="magnify" version="1.0" stroke-linecap="square" stroke-linejoin="miter" contentStyleType="text/css" font-style="normal" height="370" stroke-width="1" stroke-dashoffset="0" font-weight="normal" stroke-opacity="1">
  <!--Generated by the Batik Graphics2D SVG Generator-->
  <defs id="genericDefs" />
  <g>
    <defs id="defs1">
      <clipPath clipPathUnits="userSpaceOnUse" id="clipPath1">
        <path d="M68 9 L140 9 L140 41 L68 41 L68 9 Z" />
      </clipPath>
      <clipPath clipPathUnits="userSpaceOnUse" id="clipPath2">
        <path d="M68 9 L144 9 L144 41 L68 41 L68 9 Z" />
      </clipPath>
      <clipPath clipPathUnits="userSpaceOnUse" id="clipPath3">
        <path d="M98 39 L110 39 L110 361 L98 361 L98 39 Z" />
      </clipPath>
      <clipPath clipPathUnits="userSpaceOnUse" id="clipPath4">
        <path d="M168 9 L320 9 L320 61 L168 61 L168 9 Z" />
      </clipPath>
      <clipPath clipPathUnits="userSpaceOnUse" id="clipPath5">
        <path d="M168 9 L323 9 L323 61 L168 61 L168 9 Z" />
      </clipPath>
      <clipPath clipPathUnits="userSpaceOnUse" id="clipPath6">
        <path d="M238 59 L250 59 L250 361 L238 361 L238 59 Z" />
      </clipPath>
      <clipPath clipPathUnits="userSpaceOnUse" id="clipPath7">
        <path d="M233 89 L255 89 L255 131 L233 131 L233 89 Z" />
      </clipPath>
      <clipPath clipPathUnits="userSpaceOnUse" id="clipPath8">
        <path d="M254 89 L298 89 L298 108 L254 108 L254 89 Z" />
      </clipPath>
      <clipPath clipPathUnits="userSpaceOnUse" id="clipPath9">
        <path d="M233 209 L255 209 L255 251 L233 251 L233 209 Z" />
      </clipPath>
      <clipPath clipPathUnits="userSpaceOnUse" id="clipPath10">
        <path d="M254 209 L298 209 L298 228 L254 228 L254 209 Z" />
      </clipPath>
      <clipPath clipPathUnits="userSpaceOnUse" id="clipPath11">
        <path d="M233 149 L255 149 L255 191 L233 191 L233 149 Z" />
      </clipPath>
      <clipPath clipPathUnits="userSpaceOnUse" id="clipPath12">
        <path d="M254 149 L289 149 L289 168 L254 168 L254 149 Z" />
      </clipPath>
      <clipPath clipPathUnits="userSpaceOnUse" id="clipPath13">
        <path d="M233 269 L255 269 L255 311 L233 311 L233 269 Z" />
      </clipPath>
      <clipPath clipPathUnits="userSpaceOnUse" id="clipPath14">
        <path d="M254 269 L289 269 L289 288 L254 288 L254 269 Z" />
      </clipPath>
      <clipPath clipPathUnits="userSpaceOnUse" id="clipPath15">
        <path d="M-1 -1 L340 -1 L340 371 L-1 371 L-1 -1 Z" />
      </clipPath>
      <clipPath clipPathUnits="userSpaceOnUse" id="clipPath16">
        <path d="M87 71 L255 71 L255 90 L87 90 L87 71 Z" />
      </clipPath>
      <clipPath clipPathUnits="userSpaceOnUse" id="clipPath17">
        <path d="M102 85 L114 85 L114 96 L102 96 L102 85 Z" />
      </clipPath>
      <clipPath clipPathUnits="userSpaceOnUse" id="clipPath18">
        <path d="M78 191 L264 191 L264 210 L78 210 L78 191 Z" />
      </clipPath>
      <clipPath clipPathUnits="userSpaceOnUse" id="clipPath19">
        <path d="M102 205 L114 205 L114 216 L102 216 L102 205 Z" />
      </clipPath>
      <clipPath clipPathUnits="userSpaceOnUse" id="clipPath20">
        <path d="M36 131 L306 131 L306 150 L36 150 L36 131 Z" />
      </clipPath>
      <clipPath clipPathUnits="userSpaceOnUse" id="clipPath21">
        <path d="M225 145 L237 145 L237 156 L225 156 L225 145 Z" />
      </clipPath>
      <clipPath clipPathUnits="userSpaceOnUse" id="clipPath22">
        <path d="M23 251 L319 251 L319 270 L23 270 L23 251 Z" />
      </clipPath>
      <clipPath clipPathUnits="userSpaceOnUse" id="clipPath23">
        <path d="M225 265 L237 265 L237 276 L225 276 L225 265 Z" />
      </clipPath>
    </defs>
    <g font-size="9" fill="rgb(238,201,142)" stroke-linejoin="round" stroke="rgb(238,201,142)" stroke-width="0" stroke-miterlimit="0">
      <rect x="69" y="10" clip-path="url(#clipPath1)" width="70" height="30" stroke="none" />
    </g>
    <g font-size="9" stroke-width="0.1" stroke-linecap="butt">
      <rect x="69" y="10" clip-path="url(#clipPath1)" fill="none" width="69" height="29" />
      <text x="80" font-size="14" y="30" clip-path="url(#clipPath2)" stroke="none" xml:space="preserve">System</text>
      <line clip-path="url(#clipPath3)" fill="none" x1="103" x2="103" y1="40" y2="360" stroke-dasharray="10,10" stroke-width="1.1" />
    </g>
    <g stroke-linecap="butt" font-size="9" fill="rgb(255,245,181)" stroke-dasharray="10,10" stroke="rgb(255,245,181)" stroke-width="1.1">
      <rect x="169" y="10" clip-path="url(#clipPath4)" width="150" height="50" stroke="none" />
    </g>
    <g font-size="9" stroke-width="0.1" stroke-linecap="butt">
      <rect x="169" y="10" clip-path="url(#clipPath4)" fill="none" width="149" height="49" />
      <text x="202" font-size="14" y="32" clip-path="url(#clipPath5)" stroke="none" xml:space="preserve">mikeSchmitz</text>
      <text x="201" font-size="14" y="49" clip-path="url(#clipPath5)" stroke="none" xml:space="preserve">: actLibrarian</text>
      <line clip-path="url(#clipPath6)" fill="none" x1="243" x2="243" y1="60" y2="360" stroke-dasharray="10,10" stroke-width="1.1" />
    </g>
    <g stroke-linecap="butt" font-size="9" fill="rgb(39,76,114)" stroke-dasharray="10,10" stroke="rgb(39,76,114)" stroke-width="1.1">
      <rect x="234" y="90" clip-path="url(#clipPath7)" width="20" height="40" stroke="none" />
      <rect x="234" y="90" clip-path="url(#clipPath7)" fill="none" width="19" stroke-dasharray="none" height="39" stroke-width="0.1" />
    </g>
    <g font-size="14" stroke-width="0.1" stroke-linecap="butt">
      <text xml:space="preserve" x="255" y="104" clip-path="url(#clipPath8)" stroke="none">out01</text>
      <rect x="234" y="210" clip-path="url(#clipPath9)" fill="rgb(39,76,114)" width="20" height="40" stroke="none" />
      <rect x="234" y="210" clip-path="url(#clipPath9)" fill="none" width="19" height="39" stroke="rgb(39,76,114)" />
      <text xml:space="preserve" x="255" y="224" clip-path="url(#clipPath10)" stroke="none">out02</text>
      <rect x="234" y="150" clip-path="url(#clipPath11)" fill="rgb(194,239,255)" width="20" height="40" stroke="none" />
      <rect x="234" y="150" clip-path="url(#clipPath11)" fill="none" width="19" height="39" stroke="rgb(194,239,255)" />
      <text xml:space="preserve" x="255" y="164" clip-path="url(#clipPath12)" stroke="none">in01</text>
      <rect x="234" y="270" clip-path="url(#clipPath13)" fill="rgb(194,239,255)" width="20" height="40" stroke="none" />
      <rect x="234" y="270" clip-path="url(#clipPath13)" fill="none" width="19" height="39" stroke="rgb(194,239,255)" />
      <text xml:space="preserve" x="255" y="284" clip-path="url(#clipPath14)" stroke="none">in02</text>
      <line clip-path="url(#clipPath15)" fill="none" x1="234" x2="104" y1="90" y2="90" stroke="rgb(136,136,136)" stroke-width="2.1" />
      <text x="88" y="86" clip-path="url(#clipPath16)" stroke="none" stroke-width="2.1" xml:space="preserve">sfAccessBookDatabase()</text>
      <line clip-path="url(#clipPath17)" fill="none" x1="111" x2="104" y1="87" y2="90" stroke="rgb(136,136,136)" stroke-width="2.1" />
      <line clip-path="url(#clipPath17)" fill="none" x1="104" x2="111" y1="90" y2="93" stroke="rgb(136,136,136)" stroke-width="2.1" />
      <line clip-path="url(#clipPath15)" fill="none" x1="234" x2="104" y1="210" y2="210" stroke="rgb(136,136,136)" stroke-width="2.1" />
      <text x="79" y="206" clip-path="url(#clipPath18)" stroke="none" stroke-width="2.1" xml:space="preserve">sfRemoveBook("#000003")</text>
      <line clip-path="url(#clipPath19)" fill="none" x1="111" x2="104" y1="207" y2="210" stroke="rgb(136,136,136)" stroke-width="2.1" />
      <line clip-path="url(#clipPath19)" fill="none" x1="104" x2="111" y1="210" y2="213" stroke="rgb(136,136,136)" stroke-width="2.1" />
    </g>
    <g stroke-linecap="butt" font-size="14" fill="rgb(136,136,136)" stroke-dasharray="5,5" stroke="rgb(136,136,136)" stroke-width="2.1">
      <line clip-path="url(#clipPath15)" fill="none" x1="234" x2="104" y1="150" y2="150" />
      <text x="37" y="146" clip-path="url(#clipPath20)" fill="black" stroke="none" xml:space="preserve">ieBookDatabase(Book database opened)</text>
      <line clip-path="url(#clipPath21)" fill="none" x1="227" x2="234" y1="153" y2="150" stroke-dasharray="none" />
      <line clip-path="url(#clipPath21)" fill="none" x1="234" x2="227" y1="150" y2="147" stroke-dasharray="none" />
      <line clip-path="url(#clipPath15)" fill="none" x1="234" x2="104" y1="270" y2="270" />
      <text x="24" y="266" clip-path="url(#clipPath22)" fill="black" stroke="none" xml:space="preserve">ieBookRemoved(Book successfully removed)</text>
      <line clip-path="url(#clipPath23)" fill="none" x1="227" x2="234" y1="273" y2="270" stroke-dasharray="none" />
      <line clip-path="url(#clipPath23)" fill="none" x1="234" x2="227" y1="270" y2="267" stroke-dasharray="none" />
    </g>
  </g>
</svg>

