<?xml version="1.0" encoding="UTF-8"?>
<svg xmlns="http://www.w3.org/2000/svg" xmlns:xlink="http://www.w3.org/1999/xlink" stroke-dasharray="none" shape-rendering="auto" font-family="'Dialog'" width="430" text-rendering="auto" fill-opacity="1" contentScriptType="text/ecmascript" color-interpolation="auto" color-rendering="auto" preserveAspectRatio="xMidYMid meet" font-size="12" viewBox="0 0 430 370" fill="black" stroke="black" image-rendering="auto" stroke-miterlimit="10" zoomAndPan="magnify" version="1.0" stroke-linecap="square" stroke-linejoin="miter" contentStyleType="text/css" font-style="normal" height="370" stroke-width="1" stroke-dashoffset="0" font-weight="normal" stroke-opacity="1">
  <!--Generated by the Batik Graphics2D SVG Generator-->
  <defs id="genericDefs" />
  <g>
    <defs id="defs1">
      <clipPath clipPathUnits="userSpaceOnUse" id="clipPath1">
        <path d="M114 9 L186 9 L186 41 L114 41 L114 9 Z" />
      </clipPath>
      <clipPath clipPathUnits="userSpaceOnUse" id="clipPath2">
        <path d="M114 9 L190 9 L190 41 L114 41 L114 9 Z" />
      </clipPath>
      <clipPath clipPathUnits="userSpaceOnUse" id="clipPath3">
        <path d="M144 39 L156 39 L156 361 L144 361 L144 39 Z" />
      </clipPath>
      <clipPath clipPathUnits="userSpaceOnUse" id="clipPath4">
        <path d="M214 9 L366 9 L366 61 L214 61 L214 9 Z" />
      </clipPath>
      <clipPath clipPathUnits="userSpaceOnUse" id="clipPath5">
        <path d="M214 9 L369 9 L369 61 L214 61 L214 9 Z" />
      </clipPath>
      <clipPath clipPathUnits="userSpaceOnUse" id="clipPath6">
        <path d="M284 59 L296 59 L296 361 L284 361 L284 59 Z" />
      </clipPath>
      <clipPath clipPathUnits="userSpaceOnUse" id="clipPath7">
        <path d="M279 89 L301 89 L301 131 L279 131 L279 89 Z" />
      </clipPath>
      <clipPath clipPathUnits="userSpaceOnUse" id="clipPath8">
        <path d="M300 89 L344 89 L344 108 L300 108 L300 89 Z" />
      </clipPath>
      <clipPath clipPathUnits="userSpaceOnUse" id="clipPath9">
        <path d="M279 209 L301 209 L301 251 L279 251 L279 209 Z" />
      </clipPath>
      <clipPath clipPathUnits="userSpaceOnUse" id="clipPath10">
        <path d="M300 209 L344 209 L344 228 L300 228 L300 209 Z" />
      </clipPath>
      <clipPath clipPathUnits="userSpaceOnUse" id="clipPath11">
        <path d="M279 149 L301 149 L301 191 L279 191 L279 149 Z" />
      </clipPath>
      <clipPath clipPathUnits="userSpaceOnUse" id="clipPath12">
        <path d="M300 149 L335 149 L335 168 L300 168 L300 149 Z" />
      </clipPath>
      <clipPath clipPathUnits="userSpaceOnUse" id="clipPath13">
        <path d="M279 269 L301 269 L301 311 L279 311 L279 269 Z" />
      </clipPath>
      <clipPath clipPathUnits="userSpaceOnUse" id="clipPath14">
        <path d="M300 269 L335 269 L335 288 L300 288 L300 269 Z" />
      </clipPath>
      <clipPath clipPathUnits="userSpaceOnUse" id="clipPath15">
        <path d="M-1 -1 L431 -1 L431 371 L-1 371 L-1 -1 Z" />
      </clipPath>
      <clipPath clipPathUnits="userSpaceOnUse" id="clipPath16">
        <path d="M133 71 L301 71 L301 90 L133 90 L133 71 Z" />
      </clipPath>
      <clipPath clipPathUnits="userSpaceOnUse" id="clipPath17">
        <path d="M148 85 L160 85 L160 96 L148 96 L148 85 Z" />
      </clipPath>
      <clipPath clipPathUnits="userSpaceOnUse" id="clipPath18">
        <path d="M23 191 L410 191 L410 210 L23 210 L23 191 Z" />
      </clipPath>
      <clipPath clipPathUnits="userSpaceOnUse" id="clipPath19">
        <path d="M148 205 L160 205 L160 216 L148 216 L148 205 Z" />
      </clipPath>
      <clipPath clipPathUnits="userSpaceOnUse" id="clipPath20">
        <path d="M80 131 L354 131 L354 150 L80 150 L80 131 Z" />
      </clipPath>
      <clipPath clipPathUnits="userSpaceOnUse" id="clipPath21">
        <path d="M271 145 L283 145 L283 156 L271 156 L271 145 Z" />
      </clipPath>
      <clipPath clipPathUnits="userSpaceOnUse" id="clipPath22">
        <path d="M76 251 L357 251 L357 270 L76 270 L76 251 Z" />
      </clipPath>
      <clipPath clipPathUnits="userSpaceOnUse" id="clipPath23">
        <path d="M271 265 L283 265 L283 276 L271 276 L271 265 Z" />
      </clipPath>
    </defs>
    <g font-size="9" fill="rgb(238,201,142)" stroke-linejoin="round" stroke="rgb(238,201,142)" stroke-width="0" stroke-miterlimit="0">
      <rect x="115" y="10" clip-path="url(#clipPath1)" width="70" height="30" stroke="none" />
    </g>
    <g font-size="9" stroke-width="0.1" stroke-linecap="butt">
      <rect x="115" y="10" clip-path="url(#clipPath1)" fill="none" width="69" height="29" />
      <text x="126" font-size="14" y="30" clip-path="url(#clipPath2)" stroke="none" xml:space="preserve">System</text>
      <line clip-path="url(#clipPath3)" fill="none" x1="149" x2="149" y1="40" y2="360" stroke-dasharray="10,10" stroke-width="1.1" />
    </g>
    <g stroke-linecap="butt" font-size="9" fill="rgb(255,245,181)" stroke-dasharray="10,10" stroke="rgb(255,245,181)" stroke-width="1.1">
      <rect x="215" y="10" clip-path="url(#clipPath4)" width="150" height="50" stroke="none" />
    </g>
    <g font-size="9" stroke-width="0.1" stroke-linecap="butt">
      <rect x="215" y="10" clip-path="url(#clipPath4)" fill="none" width="149" height="49" />
      <text x="248" font-size="14" y="32" clip-path="url(#clipPath5)" stroke="none" xml:space="preserve">mikeSchmitz</text>
      <text x="247" font-size="14" y="49" clip-path="url(#clipPath5)" stroke="none" xml:space="preserve">: actLibrarian</text>
      <line clip-path="url(#clipPath6)" fill="none" x1="289" x2="289" y1="60" y2="360" stroke-dasharray="10,10" stroke-width="1.1" />
    </g>
    <g stroke-linecap="butt" font-size="9" fill="rgb(39,76,114)" stroke-dasharray="10,10" stroke="rgb(39,76,114)" stroke-width="1.1">
      <rect x="280" y="90" clip-path="url(#clipPath7)" width="20" height="40" stroke="none" />
      <rect x="280" y="90" clip-path="url(#clipPath7)" fill="none" width="19" stroke-dasharray="none" height="39" stroke-width="0.1" />
    </g>
    <g font-size="14" stroke-width="0.1" stroke-linecap="butt">
      <text xml:space="preserve" x="301" y="104" clip-path="url(#clipPath8)" stroke="none">out01</text>
      <rect x="280" y="210" clip-path="url(#clipPath9)" fill="rgb(39,76,114)" width="20" height="40" stroke="none" />
      <rect x="280" y="210" clip-path="url(#clipPath9)" fill="none" width="19" height="39" stroke="rgb(39,76,114)" />
      <text xml:space="preserve" x="301" y="224" clip-path="url(#clipPath10)" stroke="none">out02</text>
      <rect x="280" y="150" clip-path="url(#clipPath11)" fill="rgb(194,239,255)" width="20" height="40" stroke="none" />
      <rect x="280" y="150" clip-path="url(#clipPath11)" fill="none" width="19" height="39" stroke="rgb(194,239,255)" />
      <text xml:space="preserve" x="301" y="164" clip-path="url(#clipPath12)" stroke="none">in01</text>
      <rect x="280" y="270" clip-path="url(#clipPath13)" fill="rgb(194,239,255)" width="20" height="40" stroke="none" />
      <rect x="280" y="270" clip-path="url(#clipPath13)" fill="none" width="19" height="39" stroke="rgb(194,239,255)" />
      <text xml:space="preserve" x="301" y="284" clip-path="url(#clipPath14)" stroke="none">in02</text>
      <line clip-path="url(#clipPath15)" fill="none" x1="280" x2="150" y1="90" y2="90" stroke="rgb(136,136,136)" stroke-width="2.1" />
      <text x="134" y="86" clip-path="url(#clipPath16)" stroke="none" stroke-width="2.1" xml:space="preserve">sfAccessBookDatabase()</text>
      <line clip-path="url(#clipPath17)" fill="none" x1="157" x2="150" y1="87" y2="90" stroke="rgb(136,136,136)" stroke-width="2.1" />
      <line clip-path="url(#clipPath17)" fill="none" x1="150" x2="157" y1="90" y2="93" stroke="rgb(136,136,136)" stroke-width="2.1" />
      <line clip-path="url(#clipPath15)" fill="none" x1="280" x2="150" y1="210" y2="210" stroke="rgb(136,136,136)" stroke-width="2.1" />
      <text x="24" y="206" clip-path="url(#clipPath18)" stroke="none" stroke-width="2.1" xml:space="preserve">sfAddBook("0-544-27299-4","Randall Munroe","What If?")</text>
      <line clip-path="url(#clipPath19)" fill="none" x1="157" x2="150" y1="207" y2="210" stroke="rgb(136,136,136)" stroke-width="2.1" />
      <line clip-path="url(#clipPath19)" fill="none" x1="150" x2="157" y1="210" y2="213" stroke="rgb(136,136,136)" stroke-width="2.1" />
    </g>
    <g stroke-linecap="butt" font-size="14" fill="rgb(136,136,136)" stroke-dasharray="5,5" stroke="rgb(136,136,136)" stroke-width="2.1">
      <line clip-path="url(#clipPath15)" fill="none" x1="280" x2="150" y1="150" y2="150" />
      <text x="81" y="146" clip-path="url(#clipPath20)" fill="black" stroke="none" xml:space="preserve">ieBookDatabase(Book database opened.)</text>
      <line clip-path="url(#clipPath21)" fill="none" x1="273" x2="280" y1="153" y2="150" stroke-dasharray="none" />
      <line clip-path="url(#clipPath21)" fill="none" x1="280" x2="273" y1="150" y2="147" stroke-dasharray="none" />
      <line clip-path="url(#clipPath15)" fill="none" x1="280" x2="150" y1="270" y2="270" />
      <text x="77" y="266" clip-path="url(#clipPath22)" fill="black" stroke="none" xml:space="preserve">ieBookAdded(Book successfully returned.)</text>
      <line clip-path="url(#clipPath23)" fill="none" x1="273" x2="280" y1="273" y2="270" stroke-dasharray="none" />
      <line clip-path="url(#clipPath23)" fill="none" x1="280" x2="273" y1="270" y2="267" stroke-dasharray="none" />
    </g>
  </g>
</svg>

