<?xml version="1.0" encoding="UTF-8"?>
<svg xmlns="http://www.w3.org/2000/svg" xmlns:xlink="http://www.w3.org/1999/xlink" stroke-dasharray="none" shape-rendering="auto" font-family="'Dialog'" width="519" text-rendering="auto" fill-opacity="1" contentScriptType="text/ecmascript" color-interpolation="auto" color-rendering="auto" preserveAspectRatio="xMidYMid meet" font-size="12" viewBox="0 0 519 430" fill="black" stroke="black" image-rendering="auto" stroke-miterlimit="10" zoomAndPan="magnify" version="1.0" stroke-linecap="square" stroke-linejoin="miter" contentStyleType="text/css" font-style="normal" height="430" stroke-width="1" stroke-dashoffset="0" font-weight="normal" stroke-opacity="1">
  <!--Generated by the Batik Graphics2D SVG Generator-->
  <defs id="genericDefs" />
  <g>
    <defs id="defs1">
      <clipPath clipPathUnits="userSpaceOnUse" id="clipPath1">
        <path d="M51 9 L123 9 L123 41 L51 41 L51 9 Z" />
      </clipPath>
      <clipPath clipPathUnits="userSpaceOnUse" id="clipPath2">
        <path d="M51 9 L127 9 L127 41 L51 41 L51 9 Z" />
      </clipPath>
      <clipPath clipPathUnits="userSpaceOnUse" id="clipPath3">
        <path d="M81 39 L93 39 L93 421 L81 421 L81 39 Z" />
      </clipPath>
      <clipPath clipPathUnits="userSpaceOnUse" id="clipPath4">
        <path d="M358 9 L510 9 L510 61 L358 61 L358 9 Z" />
      </clipPath>
      <clipPath clipPathUnits="userSpaceOnUse" id="clipPath5">
        <path d="M358 9 L514 9 L514 61 L358 61 L358 9 Z" />
      </clipPath>
      <clipPath clipPathUnits="userSpaceOnUse" id="clipPath6">
        <path d="M428 59 L440 59 L440 421 L428 421 L428 59 Z" />
      </clipPath>
      <clipPath clipPathUnits="userSpaceOnUse" id="clipPath7">
        <path d="M423 89 L445 89 L445 131 L423 131 L423 89 Z" />
      </clipPath>
      <clipPath clipPathUnits="userSpaceOnUse" id="clipPath8">
        <path d="M444 89 L498 89 L498 116 L444 116 L444 89 Z" />
      </clipPath>
      <clipPath clipPathUnits="userSpaceOnUse" id="clipPath9">
        <path d="M423 149 L445 149 L445 191 L423 191 L423 149 Z" />
      </clipPath>
      <clipPath clipPathUnits="userSpaceOnUse" id="clipPath10">
        <path d="M444 149 L498 149 L498 176 L444 176 L444 149 Z" />
      </clipPath>
      <clipPath clipPathUnits="userSpaceOnUse" id="clipPath11">
        <path d="M423 209 L445 209 L445 251 L423 251 L423 209 Z" />
      </clipPath>
      <clipPath clipPathUnits="userSpaceOnUse" id="clipPath12">
        <path d="M444 209 L498 209 L498 236 L444 236 L444 209 Z" />
      </clipPath>
      <clipPath clipPathUnits="userSpaceOnUse" id="clipPath13">
        <path d="M423 269 L445 269 L445 311 L423 311 L423 269 Z" />
      </clipPath>
      <clipPath clipPathUnits="userSpaceOnUse" id="clipPath14">
        <path d="M444 269 L498 269 L498 296 L444 296 L444 269 Z" />
      </clipPath>
      <clipPath clipPathUnits="userSpaceOnUse" id="clipPath15">
        <path d="M423 329 L445 329 L445 371 L423 371 L423 329 Z" />
      </clipPath>
      <clipPath clipPathUnits="userSpaceOnUse" id="clipPath16">
        <path d="M444 329 L498 329 L498 356 L444 356 L444 329 Z" />
      </clipPath>
      <clipPath clipPathUnits="userSpaceOnUse" id="clipPath17">
        <path d="M-1 -1 L520 -1 L520 431 L-1 431 L-1 -1 Z" />
      </clipPath>
      <clipPath clipPathUnits="userSpaceOnUse" id="clipPath18">
        <path d="M103 67 L412 67 L412 94 L103 94 L103 67 Z" />
      </clipPath>
      <clipPath clipPathUnits="userSpaceOnUse" id="clipPath19">
        <path d="M85 85 L97 85 L97 96 L85 96 L85 85 Z" />
      </clipPath>
      <clipPath clipPathUnits="userSpaceOnUse" id="clipPath20">
        <path d="M212 127 L303 127 L303 154 L212 154 L212 127 Z" />
      </clipPath>
      <clipPath clipPathUnits="userSpaceOnUse" id="clipPath21">
        <path d="M85 145 L97 145 L97 156 L85 156 L85 145 Z" />
      </clipPath>
      <clipPath clipPathUnits="userSpaceOnUse" id="clipPath22">
        <path d="M23 187 L491 187 L491 214 L23 214 L23 187 Z" />
      </clipPath>
      <clipPath clipPathUnits="userSpaceOnUse" id="clipPath23">
        <path d="M85 205 L97 205 L97 216 L85 216 L85 205 Z" />
      </clipPath>
      <clipPath clipPathUnits="userSpaceOnUse" id="clipPath24">
        <path d="M61 247 L452 247 L452 274 L61 274 L61 247 Z" />
      </clipPath>
      <clipPath clipPathUnits="userSpaceOnUse" id="clipPath25">
        <path d="M85 265 L97 265 L97 276 L85 276 L85 265 Z" />
      </clipPath>
      <clipPath clipPathUnits="userSpaceOnUse" id="clipPath26">
        <path d="M45 307 L469 307 L469 334 L45 334 L45 307 Z" />
      </clipPath>
      <clipPath clipPathUnits="userSpaceOnUse" id="clipPath27">
        <path d="M85 325 L97 325 L97 336 L85 336 L85 325 Z" />
      </clipPath>
    </defs>
    <g fill="rgb(238,201,142)" font-family="'Segoe UI'" stroke-linejoin="round" stroke="rgb(238,201,142)" stroke-width="0" stroke-miterlimit="0">
      <rect x="52" y="10" clip-path="url(#clipPath1)" width="70" height="30" stroke="none" />
    </g>
    <g stroke-width="0.1" font-family="'Segoe UI'" stroke-linecap="butt">
      <rect x="52" y="10" clip-path="url(#clipPath1)" fill="none" width="69" height="29" />
      <text x="58" font-size="19" y="33" clip-path="url(#clipPath2)" stroke="none" xml:space="preserve">System</text>
      <line clip-path="url(#clipPath3)" fill="none" x1="86" x2="86" y1="40" y2="420" stroke-dasharray="10,10" stroke-width="1.1" />
    </g>
    <g stroke-linecap="butt" fill="rgb(255,245,181)" font-family="'Segoe UI'" stroke-dasharray="10,10" stroke="rgb(255,245,181)" stroke-width="1.1">
      <rect x="359" y="10" clip-path="url(#clipPath4)" width="150" height="50" stroke="none" />
    </g>
    <g stroke-width="0.1" font-family="'Segoe UI'" stroke-linecap="butt">
      <rect x="359" y="10" clip-path="url(#clipPath4)" fill="none" width="149" height="49" />
      <text x="375" font-size="19" y="31" clip-path="url(#clipPath5)" stroke="none" xml:space="preserve">filippoLobisch</text>
      <text x="377" font-size="19" y="56" clip-path="url(#clipPath5)" stroke="none" xml:space="preserve">: actSysadmin</text>
      <line clip-path="url(#clipPath6)" fill="none" x1="433" x2="433" y1="60" y2="420" stroke-dasharray="10,10" stroke-width="1.1" />
    </g>
    <g stroke-linecap="butt" fill="rgb(39,76,114)" font-family="'Segoe UI'" stroke-dasharray="10,10" stroke="rgb(39,76,114)" stroke-width="1.1">
      <rect x="424" y="90" clip-path="url(#clipPath7)" width="20" height="40" stroke="none" />
      <rect x="424" y="90" clip-path="url(#clipPath7)" fill="none" width="19" stroke-dasharray="none" height="39" stroke-width="0.1" />
    </g>
    <g stroke-width="0.1" font-size="19" font-family="'Segoe UI'" stroke-linecap="butt">
      <text xml:space="preserve" x="445" y="111" clip-path="url(#clipPath8)" stroke="none">out01</text>
      <rect x="424" y="150" clip-path="url(#clipPath9)" fill="rgb(39,76,114)" width="20" height="40" stroke="none" />
      <rect x="424" y="150" clip-path="url(#clipPath9)" fill="none" width="19" height="39" stroke="rgb(39,76,114)" />
      <text xml:space="preserve" x="445" y="171" clip-path="url(#clipPath10)" stroke="none">out02</text>
      <rect x="424" y="210" clip-path="url(#clipPath11)" fill="rgb(39,76,114)" width="20" height="40" stroke="none" />
      <rect x="424" y="210" clip-path="url(#clipPath11)" fill="none" width="19" height="39" stroke="rgb(39,76,114)" />
      <text xml:space="preserve" x="445" y="231" clip-path="url(#clipPath12)" stroke="none">out03</text>
      <rect x="424" y="270" clip-path="url(#clipPath13)" fill="rgb(39,76,114)" width="20" height="40" stroke="none" />
      <rect x="424" y="270" clip-path="url(#clipPath13)" fill="none" width="19" height="39" stroke="rgb(39,76,114)" />
      <text xml:space="preserve" x="445" y="291" clip-path="url(#clipPath14)" stroke="none">out04</text>
      <rect x="424" y="330" clip-path="url(#clipPath15)" fill="rgb(39,76,114)" width="20" height="40" stroke="none" />
      <rect x="424" y="330" clip-path="url(#clipPath15)" fill="none" width="19" height="39" stroke="rgb(39,76,114)" />
      <text xml:space="preserve" x="445" y="351" clip-path="url(#clipPath16)" stroke="none">out05</text>
      <line clip-path="url(#clipPath17)" fill="none" x1="424" x2="87" y1="90" y2="90" stroke="rgb(136,136,136)" stroke-width="2.1" />
      <text x="104" y="89" clip-path="url(#clipPath18)" stroke="none" stroke-width="2.1" xml:space="preserve">sfLogin("filippoLobisch","password")</text>
      <line clip-path="url(#clipPath19)" fill="none" x1="94" x2="87" y1="87" y2="90" stroke="rgb(136,136,136)" stroke-width="2.1" />
      <line clip-path="url(#clipPath19)" fill="none" x1="87" x2="94" y1="90" y2="93" stroke="rgb(136,136,136)" stroke-width="2.1" />
      <line clip-path="url(#clipPath17)" fill="none" x1="424" x2="87" y1="150" y2="150" stroke="rgb(136,136,136)" stroke-width="2.1" />
      <text x="213" y="149" clip-path="url(#clipPath20)" stroke="none" stroke-width="2.1" xml:space="preserve">sfLogout()</text>
      <line clip-path="url(#clipPath21)" fill="none" x1="94" x2="87" y1="147" y2="150" stroke="rgb(136,136,136)" stroke-width="2.1" />
      <line clip-path="url(#clipPath21)" fill="none" x1="87" x2="94" y1="150" y2="153" stroke="rgb(136,136,136)" stroke-width="2.1" />
      <line clip-path="url(#clipPath17)" fill="none" x1="424" x2="87" y1="210" y2="210" stroke="rgb(136,136,136)" stroke-width="2.1" />
      <text x="24" y="209" clip-path="url(#clipPath22)" stroke="none" stroke-width="2.1" xml:space="preserve">sfAddLibrarian("100900100","John Smith","10/10/1990")</text>
      <line clip-path="url(#clipPath23)" fill="none" x1="94" x2="87" y1="207" y2="210" stroke="rgb(136,136,136)" stroke-width="2.1" />
      <line clip-path="url(#clipPath23)" fill="none" x1="87" x2="94" y1="210" y2="213" stroke="rgb(136,136,136)" stroke-width="2.1" />
      <line clip-path="url(#clipPath17)" fill="none" x1="424" x2="87" y1="270" y2="270" stroke="rgb(136,136,136)" stroke-width="2.1" />
      <text x="62" y="269" clip-path="url(#clipPath24)" stroke="none" stroke-width="2.1" xml:space="preserve">sfEditLibrarian("Successfully edited librarian.")</text>
      <line clip-path="url(#clipPath25)" fill="none" x1="94" x2="87" y1="267" y2="270" stroke="rgb(136,136,136)" stroke-width="2.1" />
      <line clip-path="url(#clipPath25)" fill="none" x1="87" x2="94" y1="270" y2="273" stroke="rgb(136,136,136)" stroke-width="2.1" />
      <line clip-path="url(#clipPath17)" fill="none" x1="424" x2="87" y1="330" y2="330" stroke="rgb(136,136,136)" stroke-width="2.1" />
      <text x="46" y="329" clip-path="url(#clipPath26)" stroke="none" stroke-width="2.1" xml:space="preserve">sfDeleteLibrarian("Successfully deleted librarian.")</text>
      <line clip-path="url(#clipPath27)" fill="none" x1="94" x2="87" y1="327" y2="330" stroke="rgb(136,136,136)" stroke-width="2.1" />
      <line clip-path="url(#clipPath27)" fill="none" x1="87" x2="94" y1="330" y2="333" stroke="rgb(136,136,136)" stroke-width="2.1" />
    </g>
  </g>
</svg>

